M48
; DRILL file {KiCad (5.99.0-8941-ge2f8b1a4b1)} date 03/10/21 21:29:26
; FORMAT={-:-/ absolute / metric / decimal}
; #@! TF.CreationDate,2021-03-10T21:29:26+01:00
; #@! TF.GenerationSoftware,Kicad,Pcbnew,(5.99.0-8941-ge2f8b1a4b1)
; #@! TF.FileFunction,Plated,1,2,PTH
FMAT,2
METRIC
T1C0.500
T2C0.800
T3C1.000
%
G90
G05
T1
X121.8Y-96.8
X122.4Y-103.8
X122.9Y-102.3
X129.571Y-93.485
T2
X123.25Y-92.25
X123.25Y-94.25
X123.25Y-106.0
X123.25Y-108.0
X125.25Y-92.25
X125.25Y-94.25
X125.25Y-106.0
X125.25Y-108.0
X127.25Y-92.25
X127.25Y-94.25
X127.25Y-106.0
X127.25Y-108.0
T3
X132.2Y-92.945
X132.2Y-95.485
X132.2Y-98.025
X135.2Y-92.97
X135.2Y-95.51
X135.2Y-98.05
X138.2Y-92.975
X138.2Y-95.515
X138.2Y-98.055
T0
M30
