%TF.GenerationSoftware,KiCad,Pcbnew,(5.99.0-8941-ge2f8b1a4b1)*%
%TF.CreationDate,2021-03-10T21:29:07+01:00*%
%TF.ProjectId,mod,6d6f642e-6b69-4636-9164-5f7063625858,rev?*%
%TF.SameCoordinates,Original*%
%TF.FileFunction,Legend,Top*%
%TF.FilePolarity,Positive*%
%FSLAX46Y46*%
G04 Gerber Fmt 4.6, Leading zero omitted, Abs format (unit mm)*
G04 Created by KiCad (PCBNEW (5.99.0-8941-ge2f8b1a4b1)) date 2021-03-10 21:29:07*
%MOMM*%
%LPD*%
G01*
G04 APERTURE LIST*
%ADD10C,0.150000*%
%ADD11C,0.200000*%
%ADD12C,0.120000*%
G04 APERTURE END LIST*
D10*
X128707142Y-98564285D02*
X128835714Y-98607142D01*
X129050000Y-98607142D01*
X129135714Y-98564285D01*
X129178571Y-98521428D01*
X129221428Y-98435714D01*
X129221428Y-98350000D01*
X129178571Y-98264285D01*
X129135714Y-98221428D01*
X129050000Y-98178571D01*
X128878571Y-98135714D01*
X128792857Y-98092857D01*
X128750000Y-98050000D01*
X128707142Y-97964285D01*
X128707142Y-97878571D01*
X128750000Y-97792857D01*
X128792857Y-97750000D01*
X128878571Y-97707142D01*
X129092857Y-97707142D01*
X129221428Y-97750000D01*
X129607142Y-98607142D02*
X129607142Y-97707142D01*
X129821428Y-97707142D01*
X129950000Y-97750000D01*
X130035714Y-97835714D01*
X130078571Y-97921428D01*
X130121428Y-98092857D01*
X130121428Y-98221428D01*
X130078571Y-98392857D01*
X130035714Y-98478571D01*
X129950000Y-98564285D01*
X129821428Y-98607142D01*
X129607142Y-98607142D01*
X130464285Y-98350000D02*
X130892857Y-98350000D01*
X130378571Y-98607142D02*
X130678571Y-97707142D01*
X130978571Y-98607142D01*
X128528571Y-95764285D02*
X128657142Y-95807142D01*
X128871428Y-95807142D01*
X128957142Y-95764285D01*
X129000000Y-95721428D01*
X129042857Y-95635714D01*
X129042857Y-95550000D01*
X129000000Y-95464285D01*
X128957142Y-95421428D01*
X128871428Y-95378571D01*
X128700000Y-95335714D01*
X128614285Y-95292857D01*
X128571428Y-95250000D01*
X128528571Y-95164285D01*
X128528571Y-95078571D01*
X128571428Y-94992857D01*
X128614285Y-94950000D01*
X128700000Y-94907142D01*
X128914285Y-94907142D01*
X129042857Y-94950000D01*
X129942857Y-95721428D02*
X129900000Y-95764285D01*
X129771428Y-95807142D01*
X129685714Y-95807142D01*
X129557142Y-95764285D01*
X129471428Y-95678571D01*
X129428571Y-95592857D01*
X129385714Y-95421428D01*
X129385714Y-95292857D01*
X129428571Y-95121428D01*
X129471428Y-95035714D01*
X129557142Y-94950000D01*
X129685714Y-94907142D01*
X129771428Y-94907142D01*
X129900000Y-94950000D01*
X129942857Y-94992857D01*
X130757142Y-95807142D02*
X130328571Y-95807142D01*
X130328571Y-94907142D01*
D11*
X140233333Y-93452380D02*
X139900000Y-92976190D01*
X139661904Y-93452380D02*
X139661904Y-92452380D01*
X140042857Y-92452380D01*
X140138095Y-92500000D01*
X140185714Y-92547619D01*
X140233333Y-92642857D01*
X140233333Y-92785714D01*
X140185714Y-92880952D01*
X140138095Y-92928571D01*
X140042857Y-92976190D01*
X139661904Y-92976190D01*
X140566666Y-92452380D02*
X141233333Y-93452380D01*
X141233333Y-92452380D02*
X140566666Y-93452380D01*
X139638095Y-94952380D02*
X140209523Y-94952380D01*
X139923809Y-95952380D02*
X139923809Y-94952380D01*
X140447619Y-94952380D02*
X141114285Y-95952380D01*
X141114285Y-94952380D02*
X140447619Y-95952380D01*
X120726190Y-108452380D02*
X120726190Y-107452380D01*
X121202380Y-108452380D02*
X121202380Y-107452380D01*
X121773809Y-108452380D01*
X121773809Y-107452380D01*
D10*
X128914285Y-92350000D02*
X128828571Y-92307142D01*
X128700000Y-92307142D01*
X128571428Y-92350000D01*
X128485714Y-92435714D01*
X128442857Y-92521428D01*
X128400000Y-92692857D01*
X128400000Y-92821428D01*
X128442857Y-92992857D01*
X128485714Y-93078571D01*
X128571428Y-93164285D01*
X128700000Y-93207142D01*
X128785714Y-93207142D01*
X128914285Y-93164285D01*
X128957142Y-93121428D01*
X128957142Y-92821428D01*
X128785714Y-92821428D01*
X129342857Y-93207142D02*
X129342857Y-92307142D01*
X129857142Y-93207142D01*
X129857142Y-92307142D01*
X130285714Y-93207142D02*
X130285714Y-92307142D01*
X130500000Y-92307142D01*
X130628571Y-92350000D01*
X130714285Y-92435714D01*
X130757142Y-92521428D01*
X130800000Y-92692857D01*
X130800000Y-92821428D01*
X130757142Y-92992857D01*
X130714285Y-93078571D01*
X130628571Y-93164285D01*
X130500000Y-93207142D01*
X130285714Y-93207142D01*
D11*
X120652380Y-95250000D02*
X120652380Y-95059523D01*
X120700000Y-94964285D01*
X120795238Y-94869047D01*
X120985714Y-94821428D01*
X121319047Y-94821428D01*
X121509523Y-94869047D01*
X121604761Y-94964285D01*
X121652380Y-95059523D01*
X121652380Y-95250000D01*
X121604761Y-95345238D01*
X121509523Y-95440476D01*
X121319047Y-95488095D01*
X120985714Y-95488095D01*
X120795238Y-95440476D01*
X120700000Y-95345238D01*
X120652380Y-95250000D01*
X120652380Y-94392857D02*
X121461904Y-94392857D01*
X121557142Y-94345238D01*
X121604761Y-94297619D01*
X121652380Y-94202380D01*
X121652380Y-94011904D01*
X121604761Y-93916666D01*
X121557142Y-93869047D01*
X121461904Y-93821428D01*
X120652380Y-93821428D01*
X120652380Y-93488095D02*
X120652380Y-92916666D01*
X121652380Y-93202380D02*
X120652380Y-93202380D01*
D10*
%TO.C,J3*%
X137866666Y-90452380D02*
X137866666Y-91166666D01*
X137819047Y-91309523D01*
X137723809Y-91404761D01*
X137580952Y-91452380D01*
X137485714Y-91452380D01*
X138247619Y-90452380D02*
X138866666Y-90452380D01*
X138533333Y-90833333D01*
X138676190Y-90833333D01*
X138771428Y-90880952D01*
X138819047Y-90928571D01*
X138866666Y-91023809D01*
X138866666Y-91261904D01*
X138819047Y-91357142D01*
X138771428Y-91404761D01*
X138676190Y-91452380D01*
X138390476Y-91452380D01*
X138295238Y-91404761D01*
X138247619Y-91357142D01*
%TO.C,J5*%
X134866666Y-90352380D02*
X134866666Y-91066666D01*
X134819047Y-91209523D01*
X134723809Y-91304761D01*
X134580952Y-91352380D01*
X134485714Y-91352380D01*
X135819047Y-90352380D02*
X135342857Y-90352380D01*
X135295238Y-90828571D01*
X135342857Y-90780952D01*
X135438095Y-90733333D01*
X135676190Y-90733333D01*
X135771428Y-90780952D01*
X135819047Y-90828571D01*
X135866666Y-90923809D01*
X135866666Y-91161904D01*
X135819047Y-91257142D01*
X135771428Y-91304761D01*
X135676190Y-91352380D01*
X135438095Y-91352380D01*
X135342857Y-91304761D01*
X135295238Y-91257142D01*
%TO.C,J2*%
X120766666Y-91452380D02*
X120766666Y-92166666D01*
X120719047Y-92309523D01*
X120623809Y-92404761D01*
X120480952Y-92452380D01*
X120385714Y-92452380D01*
X121195238Y-91547619D02*
X121242857Y-91500000D01*
X121338095Y-91452380D01*
X121576190Y-91452380D01*
X121671428Y-91500000D01*
X121719047Y-91547619D01*
X121766666Y-91642857D01*
X121766666Y-91738095D01*
X121719047Y-91880952D01*
X121147619Y-92452380D01*
X121766666Y-92452380D01*
%TO.C,J1*%
X120916666Y-105422380D02*
X120916666Y-106136666D01*
X120869047Y-106279523D01*
X120773809Y-106374761D01*
X120630952Y-106422380D01*
X120535714Y-106422380D01*
X121916666Y-106422380D02*
X121345238Y-106422380D01*
X121630952Y-106422380D02*
X121630952Y-105422380D01*
X121535714Y-105565238D01*
X121440476Y-105660476D01*
X121345238Y-105708095D01*
%TO.C,J4*%
X131866666Y-90352380D02*
X131866666Y-91066666D01*
X131819047Y-91209523D01*
X131723809Y-91304761D01*
X131580952Y-91352380D01*
X131485714Y-91352380D01*
X132771428Y-90685714D02*
X132771428Y-91352380D01*
X132533333Y-90304761D02*
X132295238Y-91019047D01*
X132914285Y-91019047D01*
%TO.C,C2*%
X121833333Y-102757142D02*
X121785714Y-102804761D01*
X121642857Y-102852380D01*
X121547619Y-102852380D01*
X121404761Y-102804761D01*
X121309523Y-102709523D01*
X121261904Y-102614285D01*
X121214285Y-102423809D01*
X121214285Y-102280952D01*
X121261904Y-102090476D01*
X121309523Y-101995238D01*
X121404761Y-101900000D01*
X121547619Y-101852380D01*
X121642857Y-101852380D01*
X121785714Y-101900000D01*
X121833333Y-101947619D01*
X122214285Y-101947619D02*
X122261904Y-101900000D01*
X122357142Y-101852380D01*
X122595238Y-101852380D01*
X122690476Y-101900000D01*
X122738095Y-101947619D01*
X122785714Y-102042857D01*
X122785714Y-102138095D01*
X122738095Y-102280952D01*
X122166666Y-102852380D01*
X122785714Y-102852380D01*
%TO.C,U2*%
X129038095Y-101952380D02*
X129038095Y-102761904D01*
X129085714Y-102857142D01*
X129133333Y-102904761D01*
X129228571Y-102952380D01*
X129419047Y-102952380D01*
X129514285Y-102904761D01*
X129561904Y-102857142D01*
X129609523Y-102761904D01*
X129609523Y-101952380D01*
X130038095Y-102047619D02*
X130085714Y-102000000D01*
X130180952Y-101952380D01*
X130419047Y-101952380D01*
X130514285Y-102000000D01*
X130561904Y-102047619D01*
X130609523Y-102142857D01*
X130609523Y-102238095D01*
X130561904Y-102380952D01*
X129990476Y-102952380D01*
X130609523Y-102952380D01*
D12*
%TO.C,J3*%
X139530000Y-94245000D02*
X139530000Y-99385000D01*
X136870000Y-94245000D02*
X136870000Y-99385000D01*
X136870000Y-91645000D02*
X138200000Y-91645000D01*
X136870000Y-94245000D02*
X139530000Y-94245000D01*
X136870000Y-99385000D02*
X139530000Y-99385000D01*
X136870000Y-92975000D02*
X136870000Y-91645000D01*
%TO.C,J5*%
X133870000Y-96780000D02*
X133870000Y-91640000D01*
X136530000Y-96780000D02*
X133870000Y-96780000D01*
X136530000Y-96780000D02*
X136530000Y-91640000D01*
X136530000Y-98050000D02*
X136530000Y-99380000D01*
X136530000Y-91640000D02*
X133870000Y-91640000D01*
X136530000Y-99380000D02*
X135200000Y-99380000D01*
%TO.C,J2*%
X122190000Y-91190000D02*
X128310000Y-91190000D01*
X124250000Y-93250000D02*
X122190000Y-93250000D01*
X122190000Y-93250000D02*
X122190000Y-91190000D01*
X124250000Y-95310000D02*
X128310000Y-95310000D01*
X128310000Y-95310000D02*
X128310000Y-91190000D01*
X123250000Y-95310000D02*
X122190000Y-95310000D01*
X124250000Y-95310000D02*
X124250000Y-93250000D01*
X122190000Y-95310000D02*
X122190000Y-94250000D01*
%TO.C,J1*%
X128310000Y-109060000D02*
X128310000Y-104940000D01*
X122190000Y-104940000D02*
X128310000Y-104940000D01*
X124250000Y-109060000D02*
X128310000Y-109060000D01*
X124250000Y-107000000D02*
X122190000Y-107000000D01*
X122190000Y-107000000D02*
X122190000Y-104940000D01*
X124250000Y-109060000D02*
X124250000Y-107000000D01*
X123250000Y-109060000D02*
X122190000Y-109060000D01*
X122190000Y-109060000D02*
X122190000Y-108000000D01*
%TO.C,J4*%
X133530000Y-98025000D02*
X133530000Y-99355000D01*
X133530000Y-99355000D02*
X132200000Y-99355000D01*
X133530000Y-91615000D02*
X130870000Y-91615000D01*
X130870000Y-96755000D02*
X130870000Y-91615000D01*
X133530000Y-96755000D02*
X133530000Y-91615000D01*
X133530000Y-96755000D02*
X130870000Y-96755000D01*
%TO.C,C2*%
X121265000Y-99638748D02*
X121265000Y-100161252D01*
X122735000Y-99638748D02*
X122735000Y-100161252D01*
%TO.C,U2*%
X128560000Y-100000000D02*
X128560000Y-98050000D01*
X123440000Y-100000000D02*
X123440000Y-98050000D01*
X128560000Y-100000000D02*
X128560000Y-101950000D01*
X123440000Y-100000000D02*
X123440000Y-103450000D01*
%TD*%
M02*
