%TF.GenerationSoftware,KiCad,Pcbnew,(5.99.0-8941-ge2f8b1a4b1)*%
%TF.CreationDate,2021-03-10T21:29:07+01:00*%
%TF.ProjectId,mod,6d6f642e-6b69-4636-9164-5f7063625858,rev?*%
%TF.SameCoordinates,Original*%
%TF.FileFunction,Copper,L2,Bot*%
%TF.FilePolarity,Positive*%
%FSLAX46Y46*%
G04 Gerber Fmt 4.6, Leading zero omitted, Abs format (unit mm)*
G04 Created by KiCad (PCBNEW (5.99.0-8941-ge2f8b1a4b1)) date 2021-03-10 21:29:07*
%MOMM*%
%LPD*%
G01*
G04 APERTURE LIST*
G04 Aperture macros list*
%AMRoundRect*
0 Rectangle with rounded corners*
0 $1 Rounding radius*
0 $2 $3 $4 $5 $6 $7 $8 $9 X,Y pos of 4 corners*
0 Add a 4 corners polygon primitive as box body*
4,1,4,$2,$3,$4,$5,$6,$7,$8,$9,$2,$3,0*
0 Add four circle primitives for the rounded corners*
1,1,$1+$1,$2,$3*
1,1,$1+$1,$4,$5*
1,1,$1+$1,$6,$7*
1,1,$1+$1,$8,$9*
0 Add four rect primitives between the rounded corners*
20,1,$1+$1,$2,$3,$4,$5,0*
20,1,$1+$1,$4,$5,$6,$7,0*
20,1,$1+$1,$6,$7,$8,$9,0*
20,1,$1+$1,$8,$9,$2,$3,0*%
G04 Aperture macros list end*
%TA.AperFunction,ComponentPad*%
%ADD10R,1.700000X1.700000*%
%TD*%
%TA.AperFunction,ComponentPad*%
%ADD11O,1.700000X1.700000*%
%TD*%
%TA.AperFunction,ComponentPad*%
%ADD12R,1.350000X1.350000*%
%TD*%
%TA.AperFunction,ComponentPad*%
%ADD13O,1.350000X1.350000*%
%TD*%
%TA.AperFunction,SMDPad,CuDef*%
%ADD14RoundRect,0.150000X0.587500X0.150000X-0.587500X0.150000X-0.587500X-0.150000X0.587500X-0.150000X0*%
%TD*%
%TA.AperFunction,SMDPad,CuDef*%
%ADD15RoundRect,0.250000X0.475000X-0.250000X0.475000X0.250000X-0.475000X0.250000X-0.475000X-0.250000X0*%
%TD*%
%TA.AperFunction,SMDPad,CuDef*%
%ADD16RoundRect,0.250000X0.250000X0.475000X-0.250000X0.475000X-0.250000X-0.475000X0.250000X-0.475000X0*%
%TD*%
%TA.AperFunction,SMDPad,CuDef*%
%ADD17RoundRect,0.250000X-0.475000X0.250000X-0.475000X-0.250000X0.475000X-0.250000X0.475000X0.250000X0*%
%TD*%
%TA.AperFunction,ViaPad*%
%ADD18C,0.800000*%
%TD*%
%TA.AperFunction,Conductor*%
%ADD19C,0.350000*%
%TD*%
%TA.AperFunction,Conductor*%
%ADD20C,2.000000*%
%TD*%
%TA.AperFunction,Conductor*%
%ADD21C,1.500000*%
%TD*%
G04 APERTURE END LIST*
D10*
%TO.P,J3,1,Pin_1*%
%TO.N,Net-(J3-Pad1)*%
X138200000Y-92975000D03*
D11*
%TO.P,J3,2,Pin_2*%
%TO.N,Net-(J3-Pad2)*%
X138200000Y-95515000D03*
%TO.P,J3,3,Pin_3*%
%TO.N,GND*%
X138200000Y-98055000D03*
%TD*%
D10*
%TO.P,J5,1,Pin_1*%
%TO.N,/SDA*%
X135200000Y-98050000D03*
D11*
%TO.P,J5,2,Pin_2*%
%TO.N,/SCL*%
X135200000Y-95510000D03*
%TO.P,J5,3,Pin_3*%
%TO.N,GND*%
X135200000Y-92970000D03*
%TD*%
D12*
%TO.P,J2,1,Pin_1*%
%TO.N,GND*%
X123250000Y-94250000D03*
D13*
%TO.P,J2,2,Pin_2*%
%TO.N,unconnected-(J2-Pad2)*%
X123250000Y-92250000D03*
%TO.P,J2,3,Pin_3*%
%TO.N,/PWM_OUT*%
X125250000Y-94250000D03*
%TO.P,J2,4,Pin_4*%
%TO.N,unconnected-(J2-Pad4)*%
X125250000Y-92250000D03*
%TO.P,J2,5,Pin_5*%
%TO.N,+12V*%
X127250000Y-94250000D03*
%TO.P,J2,6,Pin_6*%
%TO.N,unconnected-(J2-Pad6)*%
X127250000Y-92250000D03*
%TD*%
D12*
%TO.P,J1,1,Pin_1*%
%TO.N,GND*%
X123250000Y-108000000D03*
D13*
%TO.P,J1,2,Pin_2*%
X123250000Y-106000000D03*
%TO.P,J1,3,Pin_3*%
%TO.N,/PWM_IN*%
X125250000Y-108000000D03*
%TO.P,J1,4,Pin_4*%
%TO.N,GND*%
X125250000Y-106000000D03*
%TO.P,J1,5,Pin_5*%
%TO.N,+12V*%
X127250000Y-108000000D03*
%TO.P,J1,6,Pin_6*%
%TO.N,unconnected-(J1-Pad6)*%
X127250000Y-106000000D03*
%TD*%
D10*
%TO.P,J4,1,Pin_1*%
%TO.N,/SDA*%
X132200000Y-98025000D03*
D11*
%TO.P,J4,2,Pin_2*%
%TO.N,/SCL*%
X132200000Y-95485000D03*
%TO.P,J4,3,Pin_3*%
%TO.N,GND*%
X132200000Y-92945000D03*
%TD*%
D14*
%TO.P,U1,1,VI*%
%TO.N,+12V*%
X127537500Y-98650000D03*
%TO.P,U1,2,VO*%
%TO.N,Net-(C1-Pad1)*%
X127537500Y-100550000D03*
%TO.P,U1,3,GND*%
%TO.N,GND*%
X125662500Y-99600000D03*
%TD*%
D15*
%TO.P,C1,1*%
%TO.N,Net-(C1-Pad1)*%
X123500000Y-100550000D03*
%TO.P,C1,2*%
%TO.N,GND*%
X123500000Y-98650000D03*
%TD*%
D16*
%TO.P,C3,1*%
%TO.N,+12V*%
X126550000Y-96700000D03*
%TO.P,C3,2*%
%TO.N,GND*%
X124650000Y-96700000D03*
%TD*%
D17*
%TO.P,R1,1*%
%TO.N,Net-(J3-Pad1)*%
X140400000Y-93450000D03*
%TO.P,R1,2*%
%TO.N,Net-(J3-Pad2)*%
X140400000Y-95350000D03*
%TD*%
D18*
%TO.N,Net-(C1-Pad1)*%
X122900000Y-102300000D03*
%TO.N,GND*%
X121800000Y-96800000D03*
X122400000Y-103800000D03*
X129571258Y-93484979D03*
%TD*%
D19*
%TO.N,Net-(C1-Pad1)*%
X123500000Y-100550000D02*
X123500000Y-101700000D01*
X123500000Y-101700000D02*
X122900000Y-102300000D01*
X127537500Y-100550000D02*
X123500000Y-100550000D01*
%TO.N,+12V*%
X126550000Y-96700000D02*
X126550000Y-97450000D01*
X127000000Y-97900000D02*
X127400000Y-97900000D01*
X126550000Y-97450000D02*
X127000000Y-97900000D01*
X127400000Y-97900000D02*
X127537500Y-98037500D01*
X127537500Y-98037500D02*
X127537500Y-98650000D01*
X126550000Y-96700000D02*
X127700000Y-96700000D01*
X127700000Y-96700000D02*
X128250000Y-96150000D01*
X128250000Y-96150000D02*
X128250000Y-95250000D01*
D20*
X129500000Y-96500000D02*
X128250000Y-95250000D01*
X128500000Y-107750000D02*
X129500000Y-106750000D01*
X129500000Y-106750000D02*
X129500000Y-96500000D01*
D21*
X128250000Y-95250000D02*
X127250000Y-94250000D01*
X128250000Y-108000000D02*
X127250000Y-108000000D01*
X128500000Y-107750000D02*
X128250000Y-108000000D01*
D19*
%TO.N,Net-(J3-Pad2)*%
X138365000Y-95350000D02*
X138200000Y-95515000D01*
X140400000Y-95350000D02*
X138365000Y-95350000D01*
%TO.N,Net-(J3-Pad1)*%
X139175000Y-92975000D02*
X138200000Y-92975000D01*
X140400000Y-93450000D02*
X139650000Y-93450000D01*
X139650000Y-93450000D02*
X139175000Y-92975000D01*
%TO.N,/SCL*%
X135200000Y-95510000D02*
X132225000Y-95510000D01*
X132225000Y-95510000D02*
X132200000Y-95485000D01*
%TO.N,/SDA*%
X135200000Y-98050000D02*
X132225000Y-98050000D01*
X132225000Y-98050000D02*
X132200000Y-98025000D01*
%TD*%
%TA.AperFunction,Conductor*%
%TO.N,GND*%
G36*
X141109191Y-90368907D02*
G01*
X141145155Y-90418407D01*
X141150000Y-90449000D01*
X141150000Y-92658007D01*
X141131093Y-92716198D01*
X141081593Y-92752162D01*
X141022634Y-92752856D01*
X140945283Y-92729723D01*
X140942282Y-92729500D01*
X139890087Y-92729500D01*
X139886596Y-92730000D01*
X139886595Y-92730000D01*
X139857239Y-92734204D01*
X139791543Y-92743613D01*
X139668814Y-92799414D01*
X139667246Y-92800765D01*
X139610251Y-92815614D01*
X139553283Y-92793291D01*
X139546114Y-92786792D01*
X139499269Y-92739947D01*
X139499078Y-92739723D01*
X139499011Y-92739592D01*
X139410408Y-92650989D01*
X139403469Y-92647453D01*
X139403467Y-92647452D01*
X139389265Y-92640216D01*
X139376025Y-92632103D01*
X139356823Y-92618152D01*
X139343906Y-92613955D01*
X139294407Y-92577992D01*
X139275500Y-92519801D01*
X139275500Y-92125000D01*
X139258335Y-92038705D01*
X139209453Y-91965547D01*
X139136295Y-91916665D01*
X139050000Y-91899500D01*
X137350000Y-91899500D01*
X137263705Y-91916665D01*
X137190547Y-91965547D01*
X137141665Y-92038705D01*
X137124500Y-92125000D01*
X137124500Y-93825000D01*
X137141665Y-93911295D01*
X137147082Y-93919402D01*
X137167368Y-93949762D01*
X137190547Y-93984453D01*
X137198657Y-93989872D01*
X137216217Y-94001605D01*
X137263705Y-94033335D01*
X137350000Y-94050500D01*
X139050000Y-94050500D01*
X139136295Y-94033335D01*
X139183783Y-94001605D01*
X139201343Y-93989872D01*
X139209453Y-93984453D01*
X139232633Y-93949762D01*
X139252918Y-93919402D01*
X139258335Y-93911295D01*
X139272015Y-93842520D01*
X139301911Y-93789135D01*
X139357476Y-93763519D01*
X139414184Y-93774799D01*
X139414587Y-93774008D01*
X139414591Y-93774010D01*
X139414592Y-93774011D01*
X139420784Y-93777166D01*
X139421891Y-93778273D01*
X139427235Y-93781690D01*
X139427770Y-93782078D01*
X139426899Y-93783280D01*
X139464050Y-93820426D01*
X139468269Y-93831055D01*
X139468613Y-93833457D01*
X139524414Y-93956186D01*
X139553440Y-93989872D01*
X139605681Y-94050500D01*
X139612418Y-94058319D01*
X139725551Y-94131648D01*
X139732309Y-94133669D01*
X139732311Y-94133670D01*
X139764870Y-94143407D01*
X139854717Y-94170277D01*
X139857718Y-94170500D01*
X140909913Y-94170500D01*
X140913404Y-94170000D01*
X140913405Y-94170000D01*
X140942761Y-94165796D01*
X141008457Y-94156387D01*
X141014880Y-94153467D01*
X141021647Y-94151488D01*
X141022459Y-94154265D01*
X141070846Y-94148807D01*
X141124065Y-94178996D01*
X141149376Y-94234700D01*
X141150000Y-94245797D01*
X141150000Y-94558007D01*
X141131093Y-94616198D01*
X141081593Y-94652162D01*
X141022634Y-94652856D01*
X140945283Y-94629723D01*
X140942282Y-94629500D01*
X139890087Y-94629500D01*
X139886596Y-94630000D01*
X139886595Y-94630000D01*
X139859071Y-94633942D01*
X139791543Y-94643613D01*
X139668814Y-94699414D01*
X139566681Y-94787418D01*
X139562844Y-94793338D01*
X139519167Y-94860724D01*
X139493352Y-94900551D01*
X139493018Y-94900334D01*
X139454514Y-94941918D01*
X139406213Y-94954500D01*
X139171094Y-94954500D01*
X139112903Y-94935593D01*
X139094375Y-94918071D01*
X138966203Y-94760918D01*
X138963143Y-94757166D01*
X138931415Y-94730918D01*
X138805139Y-94626453D01*
X138805137Y-94626452D01*
X138801412Y-94623370D01*
X138616773Y-94523536D01*
X138527288Y-94495836D01*
X138420880Y-94462897D01*
X138420876Y-94462896D01*
X138416259Y-94461467D01*
X138411451Y-94460962D01*
X138411448Y-94460961D01*
X138212324Y-94440032D01*
X138212322Y-94440032D01*
X138207508Y-94439526D01*
X138139088Y-94445753D01*
X138003291Y-94458111D01*
X138003288Y-94458112D01*
X137998471Y-94458550D01*
X137993829Y-94459916D01*
X137993825Y-94459917D01*
X137801758Y-94516446D01*
X137801755Y-94516447D01*
X137797111Y-94517814D01*
X137788899Y-94522107D01*
X137615393Y-94612813D01*
X137615389Y-94612816D01*
X137611096Y-94615060D01*
X137607320Y-94618096D01*
X137607317Y-94618098D01*
X137451284Y-94743552D01*
X137447512Y-94746585D01*
X137444403Y-94750290D01*
X137444400Y-94750293D01*
X137315707Y-94903663D01*
X137312590Y-94907378D01*
X137310254Y-94911626D01*
X137310254Y-94911627D01*
X137284405Y-94958646D01*
X137211470Y-95091315D01*
X137210007Y-95095928D01*
X137210005Y-95095932D01*
X137167493Y-95229947D01*
X137148002Y-95291391D01*
X137124605Y-95499984D01*
X137125010Y-95504804D01*
X137140522Y-95689529D01*
X137142169Y-95709148D01*
X137143502Y-95713796D01*
X137143502Y-95713797D01*
X137198337Y-95905030D01*
X137200025Y-95910918D01*
X137202240Y-95915227D01*
X137202240Y-95915228D01*
X137251572Y-96011217D01*
X137295971Y-96097607D01*
X137426350Y-96262105D01*
X137430037Y-96265243D01*
X137430039Y-96265245D01*
X137476164Y-96304500D01*
X137586198Y-96398146D01*
X137590421Y-96400506D01*
X137590425Y-96400509D01*
X137707181Y-96465761D01*
X137769425Y-96500548D01*
X137774023Y-96502042D01*
X137964447Y-96563915D01*
X137964449Y-96563916D01*
X137969052Y-96565411D01*
X138177476Y-96590264D01*
X138182298Y-96589893D01*
X138182301Y-96589893D01*
X138250860Y-96584618D01*
X138386759Y-96574161D01*
X138588927Y-96517714D01*
X138593240Y-96515535D01*
X138593246Y-96515533D01*
X138730541Y-96446180D01*
X138776282Y-96423075D01*
X138850604Y-96365008D01*
X138937875Y-96296825D01*
X138937878Y-96296822D01*
X138941686Y-96293847D01*
X138965011Y-96266825D01*
X139075675Y-96138619D01*
X139075677Y-96138617D01*
X139078839Y-96134953D01*
X139176880Y-95962370D01*
X139180129Y-95956651D01*
X139180130Y-95956648D01*
X139182518Y-95952445D01*
X139184182Y-95947445D01*
X139228822Y-95813251D01*
X139265131Y-95764003D01*
X139322761Y-95745500D01*
X139410349Y-95745500D01*
X139468540Y-95764407D01*
X139500471Y-95803525D01*
X139524414Y-95856186D01*
X139529019Y-95861530D01*
X139529020Y-95861532D01*
X139607813Y-95952975D01*
X139612418Y-95958319D01*
X139725551Y-96031648D01*
X139732309Y-96033669D01*
X139732311Y-96033670D01*
X139777817Y-96047279D01*
X139854717Y-96070277D01*
X139857718Y-96070500D01*
X140909913Y-96070500D01*
X140913404Y-96070000D01*
X140913405Y-96070000D01*
X140960180Y-96063301D01*
X141008457Y-96056387D01*
X141014880Y-96053467D01*
X141021647Y-96051488D01*
X141022459Y-96054265D01*
X141070846Y-96048807D01*
X141124065Y-96078996D01*
X141149376Y-96134700D01*
X141150000Y-96145797D01*
X141150000Y-99551000D01*
X141131093Y-99609191D01*
X141081593Y-99645155D01*
X141051000Y-99650000D01*
X131021527Y-99650000D01*
X131012984Y-99649631D01*
X130980300Y-99646800D01*
X130980299Y-99646800D01*
X130972147Y-99646094D01*
X130964206Y-99648067D01*
X130964201Y-99648067D01*
X130932695Y-99655893D01*
X130925086Y-99657469D01*
X130913374Y-99659419D01*
X130885009Y-99664140D01*
X130877808Y-99668026D01*
X130872297Y-99669912D01*
X130866953Y-99672224D01*
X130859012Y-99674197D01*
X130856237Y-99675989D01*
X130797903Y-99681503D01*
X130745238Y-99650356D01*
X130720939Y-99594203D01*
X130720500Y-99584887D01*
X130720500Y-97175000D01*
X131124500Y-97175000D01*
X131124500Y-98875000D01*
X131141665Y-98961295D01*
X131190547Y-99034453D01*
X131263705Y-99083335D01*
X131350000Y-99100500D01*
X133050000Y-99100500D01*
X133136295Y-99083335D01*
X133209453Y-99034453D01*
X133258335Y-98961295D01*
X133275500Y-98875000D01*
X133275500Y-98544500D01*
X133294407Y-98486309D01*
X133343907Y-98450345D01*
X133374500Y-98445500D01*
X134025500Y-98445500D01*
X134083691Y-98464407D01*
X134119655Y-98513907D01*
X134124500Y-98544500D01*
X134124500Y-98900000D01*
X134141665Y-98986295D01*
X134156330Y-99008243D01*
X134177464Y-99039872D01*
X134190547Y-99059453D01*
X134198657Y-99064872D01*
X134226289Y-99083335D01*
X134263705Y-99108335D01*
X134350000Y-99125500D01*
X136050000Y-99125500D01*
X136136295Y-99108335D01*
X136173711Y-99083335D01*
X136201343Y-99064872D01*
X136209453Y-99059453D01*
X136222537Y-99039872D01*
X136243670Y-99008243D01*
X136258335Y-98986295D01*
X136275500Y-98900000D01*
X136275500Y-98236890D01*
X137059831Y-98236890D01*
X137060336Y-98240077D01*
X137110131Y-98436145D01*
X137113151Y-98444673D01*
X137197841Y-98628378D01*
X137202359Y-98636204D01*
X137319115Y-98801410D01*
X137324979Y-98808276D01*
X137469880Y-98949433D01*
X137476912Y-98955128D01*
X137645108Y-99067512D01*
X137653054Y-99071826D01*
X137838915Y-99151678D01*
X137847510Y-99154471D01*
X138009707Y-99191173D01*
X138022602Y-99189989D01*
X138025000Y-99181270D01*
X138025000Y-98245680D01*
X138022583Y-98238243D01*
X138375000Y-98238243D01*
X138375000Y-99176128D01*
X138379122Y-99188813D01*
X138380292Y-99189664D01*
X138386272Y-99190174D01*
X138465132Y-99178739D01*
X138473931Y-99176627D01*
X138665480Y-99111605D01*
X138673744Y-99107925D01*
X138850236Y-99009085D01*
X138857689Y-99003963D01*
X139013214Y-98874614D01*
X139019614Y-98868214D01*
X139148963Y-98712689D01*
X139154085Y-98705236D01*
X139252925Y-98528744D01*
X139256605Y-98520480D01*
X139321627Y-98328931D01*
X139323739Y-98320132D01*
X139334558Y-98245518D01*
X139332299Y-98232372D01*
X139331263Y-98231363D01*
X139325417Y-98230000D01*
X138390680Y-98230000D01*
X138377995Y-98234122D01*
X138375000Y-98238243D01*
X138022583Y-98238243D01*
X138020878Y-98232995D01*
X138016757Y-98230000D01*
X137074528Y-98230000D01*
X137061843Y-98234122D01*
X137059831Y-98236890D01*
X136275500Y-98236890D01*
X136275500Y-97864428D01*
X137064373Y-97864428D01*
X137066976Y-97877511D01*
X137068549Y-97878965D01*
X137073264Y-97880000D01*
X138009320Y-97880000D01*
X138022005Y-97875878D01*
X138025000Y-97871757D01*
X138025000Y-96933739D01*
X138023728Y-96929826D01*
X138375000Y-96929826D01*
X138375000Y-97864320D01*
X138379122Y-97877005D01*
X138383243Y-97880000D01*
X139323239Y-97880000D01*
X139335924Y-97875878D01*
X139337593Y-97873582D01*
X139337997Y-97869965D01*
X139336074Y-97849035D01*
X139334427Y-97840151D01*
X139279517Y-97645455D01*
X139276276Y-97637011D01*
X139186807Y-97455586D01*
X139182082Y-97447876D01*
X139061048Y-97285791D01*
X139054999Y-97279073D01*
X138906449Y-97141756D01*
X138899284Y-97136257D01*
X138728196Y-97028308D01*
X138720143Y-97024205D01*
X138532250Y-96949244D01*
X138523592Y-96946679D01*
X138390379Y-96920181D01*
X138377133Y-96921749D01*
X138377099Y-96921780D01*
X138375000Y-96929826D01*
X138023728Y-96929826D01*
X138020878Y-96921054D01*
X138020274Y-96920615D01*
X138013127Y-96920099D01*
X137905540Y-96938587D01*
X137896804Y-96940928D01*
X137707019Y-97010943D01*
X137698856Y-97014836D01*
X137525014Y-97118261D01*
X137517690Y-97123582D01*
X137365608Y-97256956D01*
X137359381Y-97263517D01*
X137234147Y-97422375D01*
X137229222Y-97429958D01*
X137135031Y-97608987D01*
X137131573Y-97617335D01*
X137071586Y-97810528D01*
X137069707Y-97819367D01*
X137064373Y-97864428D01*
X136275500Y-97864428D01*
X136275500Y-97200000D01*
X136258335Y-97113705D01*
X136209453Y-97040547D01*
X136189999Y-97027548D01*
X136144402Y-96997082D01*
X136144403Y-96997082D01*
X136136295Y-96991665D01*
X136050000Y-96974500D01*
X134350000Y-96974500D01*
X134263705Y-96991665D01*
X134255597Y-96997082D01*
X134255598Y-96997082D01*
X134210002Y-97027548D01*
X134190547Y-97040547D01*
X134141665Y-97113705D01*
X134124500Y-97200000D01*
X134124500Y-97555500D01*
X134105593Y-97613691D01*
X134056093Y-97649655D01*
X134025500Y-97654500D01*
X133374500Y-97654500D01*
X133316309Y-97635593D01*
X133280345Y-97586093D01*
X133275500Y-97555500D01*
X133275500Y-97175000D01*
X133258335Y-97088705D01*
X133224669Y-97038320D01*
X133214872Y-97023657D01*
X133209453Y-97015547D01*
X133136295Y-96966665D01*
X133050000Y-96949500D01*
X131350000Y-96949500D01*
X131263705Y-96966665D01*
X131190547Y-97015547D01*
X131185128Y-97023657D01*
X131175331Y-97038320D01*
X131141665Y-97088705D01*
X131124500Y-97175000D01*
X130720500Y-97175000D01*
X130720500Y-96587619D01*
X130721347Y-96574697D01*
X130723850Y-96555688D01*
X130723850Y-96555684D01*
X130724425Y-96551318D01*
X130720610Y-96470425D01*
X130720500Y-96465761D01*
X130720500Y-96443975D01*
X130718271Y-96418997D01*
X130717990Y-96414876D01*
X130716822Y-96390095D01*
X130714161Y-96333681D01*
X130709926Y-96315190D01*
X130707819Y-96301887D01*
X130706524Y-96287372D01*
X130706523Y-96287368D01*
X130706132Y-96282983D01*
X130701280Y-96265245D01*
X130684671Y-96204537D01*
X130683661Y-96200514D01*
X130680144Y-96185155D01*
X130673860Y-96157718D01*
X130666505Y-96125604D01*
X130666504Y-96125601D01*
X130665519Y-96121300D01*
X130660110Y-96108619D01*
X130658077Y-96103852D01*
X130653648Y-96091132D01*
X130649805Y-96077085D01*
X130649802Y-96077078D01*
X130648639Y-96072825D01*
X130646151Y-96067607D01*
X130613638Y-95999443D01*
X130611932Y-95995665D01*
X130581768Y-95924947D01*
X130581767Y-95924946D01*
X130580037Y-95920889D01*
X130577619Y-95917208D01*
X130577613Y-95917197D01*
X130569620Y-95905030D01*
X130563008Y-95893296D01*
X130556741Y-95880156D01*
X130556737Y-95880149D01*
X130554839Y-95876170D01*
X130507396Y-95810146D01*
X130505060Y-95806747D01*
X130493959Y-95789847D01*
X130460416Y-95738783D01*
X130458007Y-95736079D01*
X130458003Y-95736074D01*
X130441645Y-95717715D01*
X130435171Y-95709634D01*
X130427697Y-95699233D01*
X130350174Y-95624108D01*
X130349065Y-95623017D01*
X130196032Y-95469984D01*
X131124605Y-95469984D01*
X131127124Y-95499984D01*
X131139923Y-95652398D01*
X131142169Y-95679148D01*
X131143502Y-95683796D01*
X131143502Y-95683797D01*
X131198664Y-95876170D01*
X131200025Y-95880918D01*
X131202240Y-95885227D01*
X131202240Y-95885228D01*
X131222653Y-95924947D01*
X131295971Y-96067607D01*
X131426350Y-96232105D01*
X131430037Y-96235243D01*
X131430039Y-96235245D01*
X131493022Y-96288847D01*
X131586198Y-96368146D01*
X131590421Y-96370506D01*
X131590425Y-96370509D01*
X131684482Y-96423075D01*
X131769425Y-96470548D01*
X131774023Y-96472042D01*
X131964447Y-96533915D01*
X131964449Y-96533916D01*
X131969052Y-96535411D01*
X132177476Y-96560264D01*
X132182298Y-96559893D01*
X132182301Y-96559893D01*
X132250860Y-96554618D01*
X132386759Y-96544161D01*
X132588927Y-96487714D01*
X132593240Y-96485535D01*
X132593246Y-96485533D01*
X132681919Y-96440741D01*
X132776282Y-96393075D01*
X132852303Y-96333681D01*
X132937875Y-96266825D01*
X132937878Y-96266822D01*
X132941686Y-96263847D01*
X132950783Y-96253308D01*
X133075675Y-96108619D01*
X133075677Y-96108617D01*
X133078839Y-96104953D01*
X133163684Y-95955599D01*
X133208866Y-95914342D01*
X133249763Y-95905500D01*
X134139381Y-95905500D01*
X134197572Y-95924407D01*
X134227432Y-95959246D01*
X134295971Y-96092607D01*
X134426350Y-96257105D01*
X134430037Y-96260243D01*
X134430039Y-96260245D01*
X134473021Y-96296825D01*
X134586198Y-96393146D01*
X134590421Y-96395506D01*
X134590425Y-96395509D01*
X134673220Y-96441781D01*
X134769425Y-96495548D01*
X134774023Y-96497042D01*
X134964447Y-96558915D01*
X134964449Y-96558916D01*
X134969052Y-96560411D01*
X135177476Y-96585264D01*
X135182298Y-96584893D01*
X135182301Y-96584893D01*
X135250860Y-96579618D01*
X135386759Y-96569161D01*
X135588927Y-96512714D01*
X135593240Y-96510535D01*
X135593246Y-96510533D01*
X135681919Y-96465741D01*
X135776282Y-96418075D01*
X135878661Y-96338088D01*
X135937875Y-96291825D01*
X135937878Y-96291822D01*
X135941686Y-96288847D01*
X135962059Y-96265245D01*
X136075675Y-96133619D01*
X136075677Y-96133617D01*
X136078839Y-96129953D01*
X136170379Y-95968814D01*
X136180129Y-95951651D01*
X136180130Y-95951648D01*
X136182518Y-95947445D01*
X136190003Y-95924947D01*
X136247246Y-95752866D01*
X136247246Y-95752864D01*
X136248773Y-95748275D01*
X136250315Y-95736074D01*
X136264459Y-95624108D01*
X136275081Y-95540030D01*
X136275500Y-95510000D01*
X136255017Y-95301101D01*
X136252086Y-95291391D01*
X136207307Y-95143078D01*
X136194349Y-95100159D01*
X136095807Y-94914827D01*
X135963143Y-94752166D01*
X135861830Y-94668352D01*
X135805139Y-94621453D01*
X135805137Y-94621452D01*
X135801412Y-94618370D01*
X135630274Y-94525836D01*
X135621027Y-94520836D01*
X135621026Y-94520836D01*
X135616773Y-94518536D01*
X135542885Y-94495664D01*
X135420880Y-94457897D01*
X135420876Y-94457896D01*
X135416259Y-94456467D01*
X135411451Y-94455962D01*
X135411448Y-94455961D01*
X135212324Y-94435032D01*
X135212322Y-94435032D01*
X135207508Y-94434526D01*
X135152568Y-94439526D01*
X135003291Y-94453111D01*
X135003288Y-94453112D01*
X134998471Y-94453550D01*
X134993829Y-94454916D01*
X134993825Y-94454917D01*
X134801758Y-94511446D01*
X134801755Y-94511447D01*
X134797111Y-94512814D01*
X134792817Y-94515059D01*
X134615393Y-94607813D01*
X134615389Y-94607816D01*
X134611096Y-94610060D01*
X134607320Y-94613096D01*
X134607317Y-94613098D01*
X134460779Y-94730918D01*
X134447512Y-94741585D01*
X134444403Y-94745290D01*
X134444400Y-94745293D01*
X134317083Y-94897023D01*
X134312590Y-94902378D01*
X134310256Y-94906624D01*
X134310251Y-94906631D01*
X134224181Y-95063193D01*
X134179579Y-95105078D01*
X134137427Y-95114500D01*
X133274752Y-95114500D01*
X133216561Y-95095593D01*
X133187340Y-95061977D01*
X133098081Y-94894104D01*
X133095807Y-94889827D01*
X132963143Y-94727166D01*
X132929597Y-94699414D01*
X132805139Y-94596453D01*
X132805137Y-94596452D01*
X132801412Y-94593370D01*
X132649897Y-94511446D01*
X132621027Y-94495836D01*
X132621026Y-94495836D01*
X132616773Y-94493536D01*
X132513174Y-94461467D01*
X132420880Y-94432897D01*
X132420876Y-94432896D01*
X132416259Y-94431467D01*
X132411451Y-94430962D01*
X132411448Y-94430961D01*
X132212324Y-94410032D01*
X132212322Y-94410032D01*
X132207508Y-94409526D01*
X132159952Y-94413854D01*
X132003291Y-94428111D01*
X132003288Y-94428112D01*
X131998471Y-94428550D01*
X131993829Y-94429916D01*
X131993825Y-94429917D01*
X131801758Y-94486446D01*
X131801755Y-94486447D01*
X131797111Y-94487814D01*
X131781766Y-94495836D01*
X131615393Y-94582813D01*
X131615389Y-94582816D01*
X131611096Y-94585060D01*
X131607320Y-94588096D01*
X131607317Y-94588098D01*
X131475280Y-94694259D01*
X131447512Y-94716585D01*
X131444403Y-94720290D01*
X131444400Y-94720293D01*
X131315707Y-94873663D01*
X131312590Y-94877378D01*
X131310254Y-94881626D01*
X131310254Y-94881627D01*
X131288929Y-94920417D01*
X131211470Y-95061315D01*
X131210007Y-95065928D01*
X131210005Y-95065932D01*
X131169856Y-95192498D01*
X131148002Y-95261391D01*
X131124605Y-95469984D01*
X130196032Y-95469984D01*
X129074957Y-94348910D01*
X129073408Y-94347361D01*
X128949410Y-94243682D01*
X128760152Y-94135731D01*
X128554769Y-94063002D01*
X128550426Y-94062291D01*
X128550423Y-94062290D01*
X128443601Y-94044797D01*
X128389596Y-94017102D01*
X127901440Y-93528946D01*
X127833076Y-93473189D01*
X127790885Y-93438778D01*
X127790882Y-93438776D01*
X127786994Y-93435605D01*
X127612270Y-93344262D01*
X127607446Y-93342879D01*
X127607444Y-93342878D01*
X127549088Y-93326145D01*
X127481859Y-93306867D01*
X127431135Y-93272654D01*
X127410208Y-93215158D01*
X127427073Y-93156343D01*
X127464772Y-93126890D01*
X131059831Y-93126890D01*
X131060336Y-93130077D01*
X131110131Y-93326145D01*
X131113151Y-93334673D01*
X131197841Y-93518378D01*
X131202359Y-93526204D01*
X131319115Y-93691410D01*
X131324979Y-93698276D01*
X131469880Y-93839433D01*
X131476912Y-93845128D01*
X131645108Y-93957512D01*
X131653054Y-93961826D01*
X131838915Y-94041678D01*
X131847510Y-94044471D01*
X132009707Y-94081173D01*
X132022602Y-94079989D01*
X132025000Y-94071270D01*
X132025000Y-93135680D01*
X132022583Y-93128243D01*
X132375000Y-93128243D01*
X132375000Y-94066128D01*
X132379122Y-94078813D01*
X132380292Y-94079664D01*
X132386272Y-94080174D01*
X132465132Y-94068739D01*
X132473931Y-94066627D01*
X132665480Y-94001605D01*
X132673744Y-93997925D01*
X132850236Y-93899085D01*
X132857689Y-93893963D01*
X133013214Y-93764614D01*
X133019614Y-93758214D01*
X133148963Y-93602689D01*
X133154085Y-93595236D01*
X133252925Y-93418744D01*
X133256605Y-93410480D01*
X133321627Y-93218931D01*
X133323739Y-93210132D01*
X133332184Y-93151890D01*
X134059831Y-93151890D01*
X134060336Y-93155077D01*
X134110131Y-93351145D01*
X134113151Y-93359673D01*
X134197841Y-93543378D01*
X134202359Y-93551204D01*
X134319115Y-93716410D01*
X134324979Y-93723276D01*
X134469880Y-93864433D01*
X134476912Y-93870128D01*
X134645108Y-93982512D01*
X134653054Y-93986826D01*
X134838915Y-94066678D01*
X134847510Y-94069471D01*
X135009707Y-94106173D01*
X135022602Y-94104989D01*
X135025000Y-94096270D01*
X135025000Y-93160680D01*
X135022583Y-93153243D01*
X135375000Y-93153243D01*
X135375000Y-94091128D01*
X135379122Y-94103813D01*
X135380292Y-94104664D01*
X135386272Y-94105174D01*
X135465132Y-94093739D01*
X135473931Y-94091627D01*
X135665480Y-94026605D01*
X135673744Y-94022925D01*
X135850236Y-93924085D01*
X135857689Y-93918963D01*
X136013214Y-93789614D01*
X136019614Y-93783214D01*
X136148963Y-93627689D01*
X136154085Y-93620236D01*
X136252925Y-93443744D01*
X136256605Y-93435480D01*
X136321627Y-93243931D01*
X136323739Y-93235132D01*
X136334558Y-93160518D01*
X136332299Y-93147372D01*
X136331263Y-93146363D01*
X136325417Y-93145000D01*
X135390680Y-93145000D01*
X135377995Y-93149122D01*
X135375000Y-93153243D01*
X135022583Y-93153243D01*
X135020878Y-93147995D01*
X135016757Y-93145000D01*
X134074528Y-93145000D01*
X134061843Y-93149122D01*
X134059831Y-93151890D01*
X133332184Y-93151890D01*
X133334558Y-93135518D01*
X133332299Y-93122372D01*
X133331263Y-93121363D01*
X133325417Y-93120000D01*
X132390680Y-93120000D01*
X132377995Y-93124122D01*
X132375000Y-93128243D01*
X132022583Y-93128243D01*
X132020878Y-93122995D01*
X132016757Y-93120000D01*
X131074528Y-93120000D01*
X131061843Y-93124122D01*
X131059831Y-93126890D01*
X127464772Y-93126890D01*
X127475288Y-93118674D01*
X127488564Y-93114867D01*
X127523191Y-93107506D01*
X127523195Y-93107505D01*
X127528270Y-93106426D01*
X127533004Y-93104318D01*
X127533008Y-93104317D01*
X127599207Y-93074843D01*
X127700250Y-93029856D01*
X127852552Y-92919202D01*
X127856018Y-92915352D01*
X127856022Y-92915349D01*
X127975048Y-92783157D01*
X127978406Y-92779428D01*
X134064373Y-92779428D01*
X134066976Y-92792511D01*
X134068549Y-92793965D01*
X134073264Y-92795000D01*
X135009320Y-92795000D01*
X135022005Y-92790878D01*
X135025000Y-92786757D01*
X135025000Y-91848739D01*
X135023728Y-91844826D01*
X135375000Y-91844826D01*
X135375000Y-92779320D01*
X135379122Y-92792005D01*
X135383243Y-92795000D01*
X136323239Y-92795000D01*
X136335924Y-92790878D01*
X136337593Y-92788582D01*
X136337997Y-92784965D01*
X136336074Y-92764035D01*
X136334427Y-92755151D01*
X136279517Y-92560455D01*
X136276276Y-92552011D01*
X136186807Y-92370586D01*
X136182082Y-92362876D01*
X136061048Y-92200791D01*
X136054999Y-92194073D01*
X135906449Y-92056756D01*
X135899284Y-92051257D01*
X135728196Y-91943308D01*
X135720143Y-91939205D01*
X135532250Y-91864244D01*
X135523592Y-91861679D01*
X135390379Y-91835181D01*
X135377133Y-91836749D01*
X135377099Y-91836780D01*
X135375000Y-91844826D01*
X135023728Y-91844826D01*
X135020878Y-91836054D01*
X135020274Y-91835615D01*
X135013127Y-91835099D01*
X134905540Y-91853587D01*
X134896804Y-91855928D01*
X134707019Y-91925943D01*
X134698856Y-91929836D01*
X134525014Y-92033261D01*
X134517690Y-92038582D01*
X134365608Y-92171956D01*
X134359381Y-92178517D01*
X134234147Y-92337375D01*
X134229222Y-92344958D01*
X134135031Y-92523987D01*
X134131573Y-92532335D01*
X134071586Y-92725528D01*
X134069707Y-92734367D01*
X134064373Y-92779428D01*
X127978406Y-92779428D01*
X127978520Y-92779301D01*
X127983890Y-92770000D01*
X127992880Y-92754428D01*
X131064373Y-92754428D01*
X131066976Y-92767511D01*
X131068549Y-92768965D01*
X131073264Y-92770000D01*
X132009320Y-92770000D01*
X132022005Y-92765878D01*
X132025000Y-92761757D01*
X132025000Y-91823739D01*
X132023728Y-91819826D01*
X132375000Y-91819826D01*
X132375000Y-92754320D01*
X132379122Y-92767005D01*
X132383243Y-92770000D01*
X133323239Y-92770000D01*
X133335924Y-92765878D01*
X133337593Y-92763582D01*
X133337997Y-92759965D01*
X133336074Y-92739035D01*
X133334427Y-92730151D01*
X133279517Y-92535455D01*
X133276276Y-92527011D01*
X133186807Y-92345586D01*
X133182082Y-92337876D01*
X133061048Y-92175791D01*
X133054999Y-92169073D01*
X132906449Y-92031756D01*
X132899284Y-92026257D01*
X132728196Y-91918308D01*
X132720143Y-91914205D01*
X132532250Y-91839244D01*
X132523592Y-91836679D01*
X132390379Y-91810181D01*
X132377133Y-91811749D01*
X132377099Y-91811780D01*
X132375000Y-91819826D01*
X132023728Y-91819826D01*
X132020878Y-91811054D01*
X132020274Y-91810615D01*
X132013127Y-91810099D01*
X131905540Y-91828587D01*
X131896804Y-91830928D01*
X131707019Y-91900943D01*
X131698856Y-91904836D01*
X131525014Y-92008261D01*
X131517690Y-92013582D01*
X131365608Y-92146956D01*
X131359381Y-92153517D01*
X131234147Y-92312375D01*
X131229222Y-92319958D01*
X131135031Y-92498987D01*
X131131573Y-92507335D01*
X131071586Y-92700528D01*
X131069707Y-92709367D01*
X131064373Y-92754428D01*
X127992880Y-92754428D01*
X128070056Y-92620756D01*
X128070057Y-92620754D01*
X128072648Y-92616266D01*
X128075200Y-92608412D01*
X128129220Y-92442156D01*
X128129221Y-92442152D01*
X128130822Y-92437224D01*
X128150500Y-92250000D01*
X128130822Y-92062776D01*
X128127080Y-92051257D01*
X128074250Y-91888664D01*
X128074249Y-91888663D01*
X128072648Y-91883734D01*
X128061396Y-91864244D01*
X127981113Y-91725190D01*
X127981112Y-91725189D01*
X127978520Y-91720699D01*
X127970912Y-91712249D01*
X127856022Y-91584651D01*
X127856018Y-91584648D01*
X127852552Y-91580798D01*
X127700250Y-91470144D01*
X127599207Y-91425157D01*
X127533008Y-91395683D01*
X127533004Y-91395682D01*
X127528270Y-91393574D01*
X127344128Y-91354433D01*
X127155872Y-91354433D01*
X126971730Y-91393574D01*
X126966996Y-91395682D01*
X126966992Y-91395683D01*
X126900793Y-91425157D01*
X126799750Y-91470144D01*
X126647448Y-91580798D01*
X126643982Y-91584648D01*
X126643978Y-91584651D01*
X126529088Y-91712249D01*
X126521480Y-91720699D01*
X126518888Y-91725189D01*
X126518887Y-91725190D01*
X126438605Y-91864244D01*
X126427352Y-91883734D01*
X126425751Y-91888663D01*
X126425750Y-91888664D01*
X126372921Y-92051257D01*
X126369178Y-92062776D01*
X126349500Y-92250000D01*
X126369178Y-92437224D01*
X126370779Y-92442152D01*
X126370780Y-92442156D01*
X126424800Y-92608412D01*
X126427352Y-92616266D01*
X126429943Y-92620754D01*
X126429944Y-92620756D01*
X126516110Y-92770000D01*
X126521480Y-92779301D01*
X126524952Y-92783157D01*
X126643978Y-92915349D01*
X126643982Y-92915352D01*
X126647448Y-92919202D01*
X126799750Y-93029856D01*
X126900793Y-93074843D01*
X126966992Y-93104317D01*
X126966996Y-93104318D01*
X126971730Y-93106426D01*
X126976805Y-93107505D01*
X126976809Y-93107506D01*
X127005537Y-93113613D01*
X127058525Y-93144206D01*
X127083411Y-93200102D01*
X127070689Y-93259950D01*
X127025219Y-93300890D01*
X127016859Y-93304166D01*
X127007060Y-93307502D01*
X126848666Y-93361423D01*
X126848660Y-93361426D01*
X126843918Y-93363040D01*
X126839597Y-93365575D01*
X126839593Y-93365577D01*
X126706361Y-93443744D01*
X126673864Y-93462810D01*
X126527345Y-93594737D01*
X126410346Y-93753430D01*
X126408243Y-93757981D01*
X126408242Y-93757983D01*
X126333656Y-93919402D01*
X126327646Y-93932408D01*
X126326501Y-93937291D01*
X126326499Y-93937296D01*
X126308341Y-94014716D01*
X126276646Y-94067052D01*
X126220242Y-94090763D01*
X126160673Y-94076791D01*
X126120693Y-94030474D01*
X126117802Y-94022703D01*
X126074250Y-93888664D01*
X126074249Y-93888663D01*
X126072648Y-93883734D01*
X126018032Y-93789135D01*
X125981113Y-93725190D01*
X125981112Y-93725189D01*
X125978520Y-93720699D01*
X125901195Y-93634821D01*
X125856022Y-93584651D01*
X125856018Y-93584648D01*
X125852552Y-93580798D01*
X125700250Y-93470144D01*
X125566242Y-93410480D01*
X125533008Y-93395683D01*
X125533004Y-93395682D01*
X125528270Y-93393574D01*
X125344128Y-93354433D01*
X125155872Y-93354433D01*
X124971730Y-93393574D01*
X124966996Y-93395682D01*
X124966992Y-93395683D01*
X124933758Y-93410480D01*
X124799750Y-93470144D01*
X124647448Y-93580798D01*
X124643982Y-93584648D01*
X124643978Y-93584651D01*
X124598805Y-93634821D01*
X124521480Y-93720699D01*
X124518888Y-93725189D01*
X124518887Y-93725190D01*
X124481969Y-93789135D01*
X124427352Y-93883734D01*
X124425751Y-93888663D01*
X124425750Y-93888664D01*
X124423155Y-93896651D01*
X124387191Y-93946151D01*
X124329000Y-93965058D01*
X124270809Y-93946151D01*
X124234845Y-93896651D01*
X124230000Y-93866058D01*
X124230000Y-93576130D01*
X124229947Y-93573863D01*
X124228963Y-93552577D01*
X124227133Y-93541354D01*
X124200535Y-93447870D01*
X124192498Y-93431732D01*
X124136005Y-93356922D01*
X124122679Y-93344774D01*
X124042979Y-93295426D01*
X124026158Y-93288910D01*
X123929507Y-93270842D01*
X123920417Y-93270000D01*
X123626636Y-93270000D01*
X123568445Y-93251093D01*
X123532481Y-93201593D01*
X123532481Y-93140407D01*
X123568445Y-93090907D01*
X123586369Y-93080559D01*
X123695516Y-93031964D01*
X123695518Y-93031963D01*
X123700250Y-93029856D01*
X123852552Y-92919202D01*
X123856018Y-92915352D01*
X123856022Y-92915349D01*
X123975048Y-92783157D01*
X123978520Y-92779301D01*
X123983890Y-92770000D01*
X124070056Y-92620756D01*
X124070057Y-92620754D01*
X124072648Y-92616266D01*
X124075200Y-92608412D01*
X124129220Y-92442156D01*
X124129221Y-92442152D01*
X124130822Y-92437224D01*
X124150500Y-92250000D01*
X124349500Y-92250000D01*
X124369178Y-92437224D01*
X124370779Y-92442152D01*
X124370780Y-92442156D01*
X124424800Y-92608412D01*
X124427352Y-92616266D01*
X124429943Y-92620754D01*
X124429944Y-92620756D01*
X124516110Y-92770000D01*
X124521480Y-92779301D01*
X124524952Y-92783157D01*
X124643978Y-92915349D01*
X124643982Y-92915352D01*
X124647448Y-92919202D01*
X124799750Y-93029856D01*
X124900793Y-93074843D01*
X124966992Y-93104317D01*
X124966996Y-93104318D01*
X124971730Y-93106426D01*
X125155872Y-93145567D01*
X125344128Y-93145567D01*
X125528270Y-93106426D01*
X125533004Y-93104318D01*
X125533008Y-93104317D01*
X125599207Y-93074843D01*
X125700250Y-93029856D01*
X125852552Y-92919202D01*
X125856018Y-92915352D01*
X125856022Y-92915349D01*
X125975048Y-92783157D01*
X125978520Y-92779301D01*
X125983890Y-92770000D01*
X126070056Y-92620756D01*
X126070057Y-92620754D01*
X126072648Y-92616266D01*
X126075200Y-92608412D01*
X126129220Y-92442156D01*
X126129221Y-92442152D01*
X126130822Y-92437224D01*
X126150500Y-92250000D01*
X126130822Y-92062776D01*
X126127080Y-92051257D01*
X126074250Y-91888664D01*
X126074249Y-91888663D01*
X126072648Y-91883734D01*
X126061396Y-91864244D01*
X125981113Y-91725190D01*
X125981112Y-91725189D01*
X125978520Y-91720699D01*
X125970912Y-91712249D01*
X125856022Y-91584651D01*
X125856018Y-91584648D01*
X125852552Y-91580798D01*
X125700250Y-91470144D01*
X125599207Y-91425157D01*
X125533008Y-91395683D01*
X125533004Y-91395682D01*
X125528270Y-91393574D01*
X125344128Y-91354433D01*
X125155872Y-91354433D01*
X124971730Y-91393574D01*
X124966996Y-91395682D01*
X124966992Y-91395683D01*
X124900793Y-91425157D01*
X124799750Y-91470144D01*
X124647448Y-91580798D01*
X124643982Y-91584648D01*
X124643978Y-91584651D01*
X124529088Y-91712249D01*
X124521480Y-91720699D01*
X124518888Y-91725189D01*
X124518887Y-91725190D01*
X124438605Y-91864244D01*
X124427352Y-91883734D01*
X124425751Y-91888663D01*
X124425750Y-91888664D01*
X124372921Y-92051257D01*
X124369178Y-92062776D01*
X124349500Y-92250000D01*
X124150500Y-92250000D01*
X124130822Y-92062776D01*
X124127080Y-92051257D01*
X124074250Y-91888664D01*
X124074249Y-91888663D01*
X124072648Y-91883734D01*
X124061396Y-91864244D01*
X123981113Y-91725190D01*
X123981112Y-91725189D01*
X123978520Y-91720699D01*
X123970912Y-91712249D01*
X123856022Y-91584651D01*
X123856018Y-91584648D01*
X123852552Y-91580798D01*
X123700250Y-91470144D01*
X123599207Y-91425157D01*
X123533008Y-91395683D01*
X123533004Y-91395682D01*
X123528270Y-91393574D01*
X123344128Y-91354433D01*
X123155872Y-91354433D01*
X122971730Y-91393574D01*
X122966996Y-91395682D01*
X122966992Y-91395683D01*
X122900793Y-91425157D01*
X122799750Y-91470144D01*
X122647448Y-91580798D01*
X122643982Y-91584648D01*
X122643978Y-91584651D01*
X122529088Y-91712249D01*
X122521480Y-91720699D01*
X122518888Y-91725189D01*
X122518887Y-91725190D01*
X122438605Y-91864244D01*
X122427352Y-91883734D01*
X122425751Y-91888663D01*
X122425750Y-91888664D01*
X122372921Y-92051257D01*
X122369178Y-92062776D01*
X122349500Y-92250000D01*
X122369178Y-92437224D01*
X122370779Y-92442152D01*
X122370780Y-92442156D01*
X122424800Y-92608412D01*
X122427352Y-92616266D01*
X122429943Y-92620754D01*
X122429944Y-92620756D01*
X122516110Y-92770000D01*
X122521480Y-92779301D01*
X122524952Y-92783157D01*
X122643978Y-92915349D01*
X122643982Y-92915352D01*
X122647448Y-92919202D01*
X122799750Y-93029856D01*
X122804482Y-93031963D01*
X122804484Y-93031964D01*
X122913631Y-93080559D01*
X122959100Y-93121500D01*
X122971822Y-93181348D01*
X122946935Y-93237244D01*
X122893947Y-93267837D01*
X122873364Y-93270000D01*
X122576130Y-93270000D01*
X122573863Y-93270053D01*
X122552577Y-93271037D01*
X122541354Y-93272867D01*
X122447870Y-93299465D01*
X122431732Y-93307502D01*
X122356922Y-93363995D01*
X122344774Y-93377321D01*
X122295426Y-93457021D01*
X122288910Y-93473842D01*
X122270842Y-93570493D01*
X122270000Y-93579583D01*
X122270000Y-94059320D01*
X122274122Y-94072005D01*
X122278243Y-94075000D01*
X123326000Y-94075000D01*
X123384191Y-94093907D01*
X123420155Y-94143407D01*
X123425000Y-94174000D01*
X123425000Y-95214320D01*
X123429122Y-95227005D01*
X123433243Y-95230000D01*
X123923870Y-95230000D01*
X123926137Y-95229947D01*
X123947423Y-95228963D01*
X123958646Y-95227133D01*
X124052130Y-95200535D01*
X124068268Y-95192498D01*
X124143078Y-95136005D01*
X124155226Y-95122679D01*
X124204574Y-95042979D01*
X124211090Y-95026158D01*
X124229158Y-94929507D01*
X124230000Y-94920417D01*
X124230000Y-94633942D01*
X124248907Y-94575751D01*
X124298407Y-94539787D01*
X124359593Y-94539787D01*
X124409093Y-94575751D01*
X124423155Y-94603349D01*
X124425336Y-94610060D01*
X124427352Y-94616266D01*
X124429943Y-94620754D01*
X124429944Y-94620756D01*
X124518887Y-94774810D01*
X124521480Y-94779301D01*
X124524952Y-94783157D01*
X124643978Y-94915349D01*
X124643982Y-94915352D01*
X124647448Y-94919202D01*
X124799750Y-95029856D01*
X124886025Y-95068268D01*
X124966992Y-95104317D01*
X124966996Y-95104318D01*
X124971730Y-95106426D01*
X125155872Y-95145567D01*
X125344128Y-95145567D01*
X125528270Y-95106426D01*
X125533004Y-95104318D01*
X125533008Y-95104317D01*
X125613975Y-95068268D01*
X125700250Y-95029856D01*
X125852552Y-94919202D01*
X125856018Y-94915352D01*
X125856022Y-94915349D01*
X125975048Y-94783157D01*
X125978520Y-94779301D01*
X125981113Y-94774810D01*
X126070056Y-94620756D01*
X126070057Y-94620754D01*
X126072648Y-94616266D01*
X126074250Y-94611336D01*
X126116189Y-94482261D01*
X126152153Y-94432761D01*
X126210344Y-94413854D01*
X126268535Y-94432761D01*
X126304499Y-94482261D01*
X126307840Y-94495664D01*
X126311357Y-94515609D01*
X126313202Y-94520269D01*
X126342145Y-94593370D01*
X126383936Y-94698924D01*
X126386680Y-94703118D01*
X126386682Y-94703121D01*
X126445718Y-94793338D01*
X126491894Y-94863902D01*
X126496292Y-94868786D01*
X127013328Y-95385822D01*
X127039825Y-95433724D01*
X127064173Y-95540030D01*
X127084481Y-95628700D01*
X127086212Y-95632758D01*
X127094589Y-95652398D01*
X127100028Y-95713341D01*
X127068607Y-95765842D01*
X127012327Y-95789847D01*
X126975161Y-95786088D01*
X126936997Y-95774675D01*
X126870283Y-95754723D01*
X126867282Y-95754500D01*
X126265087Y-95754500D01*
X126261596Y-95755000D01*
X126261595Y-95755000D01*
X126232239Y-95759204D01*
X126166543Y-95768613D01*
X126160120Y-95771533D01*
X126160121Y-95771533D01*
X126075158Y-95810163D01*
X126043814Y-95824414D01*
X126006941Y-95856186D01*
X125948828Y-95906260D01*
X125941681Y-95912418D01*
X125868352Y-96025551D01*
X125866331Y-96032309D01*
X125866330Y-96032311D01*
X125855436Y-96068739D01*
X125829723Y-96154717D01*
X125829500Y-96157718D01*
X125829500Y-97209913D01*
X125843613Y-97308457D01*
X125899414Y-97431186D01*
X125987418Y-97533319D01*
X126100551Y-97606648D01*
X126107309Y-97608669D01*
X126107311Y-97608670D01*
X126160591Y-97624604D01*
X126210925Y-97659392D01*
X126220434Y-97674507D01*
X126222451Y-97678466D01*
X126222454Y-97678470D01*
X126225989Y-97685408D01*
X126314592Y-97774011D01*
X126314723Y-97774078D01*
X126314947Y-97774269D01*
X126664133Y-98123455D01*
X126691910Y-98177972D01*
X126682339Y-98238404D01*
X126666827Y-98260660D01*
X126636154Y-98293842D01*
X126632846Y-98301324D01*
X126632845Y-98301326D01*
X126606838Y-98360155D01*
X126586297Y-98406617D01*
X126579500Y-98460421D01*
X126579500Y-98830040D01*
X126580171Y-98834069D01*
X126591938Y-98904764D01*
X126594745Y-98921631D01*
X126598630Y-98928831D01*
X126599644Y-98931793D01*
X126600604Y-98992971D01*
X126565421Y-99043029D01*
X126507534Y-99062847D01*
X126456256Y-99049465D01*
X126423901Y-99030671D01*
X126410283Y-99025280D01*
X126306720Y-99001275D01*
X126295571Y-99000000D01*
X125853180Y-99000000D01*
X125840495Y-99004122D01*
X125837500Y-99008243D01*
X125837500Y-99409320D01*
X125841622Y-99422005D01*
X125845743Y-99425000D01*
X126684320Y-99425000D01*
X126697005Y-99420878D01*
X126699750Y-99417100D01*
X126699450Y-99413086D01*
X126685986Y-99323529D01*
X126681683Y-99309541D01*
X126661795Y-99268125D01*
X126653650Y-99207485D01*
X126682704Y-99153638D01*
X126737860Y-99127152D01*
X126791068Y-99134725D01*
X126850024Y-99160789D01*
X126850028Y-99160790D01*
X126856617Y-99163703D01*
X126910421Y-99170500D01*
X128155040Y-99170500D01*
X128164249Y-99168967D01*
X128224752Y-99178065D01*
X128268355Y-99220989D01*
X128279500Y-99266624D01*
X128279500Y-99931725D01*
X128260593Y-99989916D01*
X128211093Y-100025880D01*
X128170793Y-100029688D01*
X128170768Y-100030085D01*
X128168263Y-100029927D01*
X128168090Y-100029944D01*
X128164579Y-100029500D01*
X126919960Y-100029500D01*
X126828369Y-100044745D01*
X126803424Y-100058205D01*
X126743237Y-100069197D01*
X126688081Y-100042712D01*
X126659026Y-99988866D01*
X126666816Y-99930861D01*
X126666606Y-99930778D01*
X126666941Y-99929933D01*
X126667170Y-99928225D01*
X126668942Y-99924879D01*
X126674720Y-99910283D01*
X126698725Y-99806720D01*
X126700000Y-99795571D01*
X126700000Y-99790680D01*
X126695878Y-99777995D01*
X126691757Y-99775000D01*
X124640680Y-99775000D01*
X124627995Y-99779122D01*
X124625250Y-99782900D01*
X124625550Y-99786914D01*
X124639014Y-99876471D01*
X124643317Y-99890459D01*
X124695475Y-99999077D01*
X124696002Y-99999853D01*
X124696239Y-100000669D01*
X124698678Y-100005748D01*
X124697833Y-100006154D01*
X124713073Y-100058608D01*
X124692348Y-100116177D01*
X124641743Y-100150569D01*
X124614122Y-100154500D01*
X124489651Y-100154500D01*
X124431460Y-100135593D01*
X124399529Y-100096475D01*
X124382312Y-100058608D01*
X124375586Y-100043814D01*
X124363831Y-100030171D01*
X124292187Y-99947025D01*
X124292186Y-99947024D01*
X124287582Y-99941681D01*
X124174449Y-99868352D01*
X124167691Y-99866331D01*
X124167689Y-99866330D01*
X124122183Y-99852721D01*
X124045283Y-99829723D01*
X124042282Y-99829500D01*
X122990087Y-99829500D01*
X122986596Y-99830000D01*
X122986595Y-99830000D01*
X122957239Y-99834204D01*
X122891543Y-99843613D01*
X122885120Y-99846533D01*
X122885121Y-99846533D01*
X122788510Y-99890459D01*
X122768814Y-99899414D01*
X122666681Y-99987418D01*
X122593352Y-100100551D01*
X122554723Y-100229717D01*
X122554500Y-100232718D01*
X122554500Y-100834913D01*
X122568613Y-100933457D01*
X122571533Y-100939879D01*
X122600222Y-101002977D01*
X122624414Y-101056186D01*
X122712418Y-101158319D01*
X122825551Y-101231648D01*
X122832309Y-101233669D01*
X122832311Y-101233670D01*
X122877817Y-101247279D01*
X122954717Y-101270277D01*
X122957718Y-101270500D01*
X123005500Y-101270500D01*
X123063691Y-101289407D01*
X123099655Y-101338907D01*
X123104500Y-101369500D01*
X123104500Y-101495170D01*
X123085593Y-101553361D01*
X123075504Y-101565174D01*
X122993119Y-101647559D01*
X122938602Y-101675336D01*
X122929339Y-101676359D01*
X122782793Y-101685579D01*
X122633675Y-101734031D01*
X122501291Y-101818044D01*
X122497031Y-101822581D01*
X122497028Y-101822583D01*
X122398226Y-101927797D01*
X122393960Y-101932340D01*
X122318425Y-102069738D01*
X122316877Y-102075768D01*
X122316876Y-102075770D01*
X122280981Y-102215569D01*
X122280980Y-102215573D01*
X122279432Y-102221604D01*
X122279432Y-102378396D01*
X122280980Y-102384427D01*
X122280981Y-102384431D01*
X122300730Y-102461347D01*
X122318425Y-102530262D01*
X122393960Y-102667660D01*
X122398225Y-102672202D01*
X122398226Y-102672203D01*
X122497028Y-102777417D01*
X122497031Y-102777419D01*
X122501291Y-102781956D01*
X122633675Y-102865969D01*
X122782793Y-102914421D01*
X122939275Y-102924266D01*
X123093290Y-102894886D01*
X123164225Y-102861506D01*
X123229525Y-102830779D01*
X123229527Y-102830778D01*
X123235160Y-102828127D01*
X123296458Y-102777417D01*
X123351173Y-102732153D01*
X123351175Y-102732150D01*
X123355970Y-102728184D01*
X123448130Y-102601337D01*
X123505849Y-102455556D01*
X123525500Y-102300000D01*
X123524156Y-102289363D01*
X123535620Y-102229262D01*
X123552371Y-102206951D01*
X123735053Y-102024269D01*
X123735277Y-102024078D01*
X123735408Y-102024011D01*
X123824011Y-101935408D01*
X123834784Y-101914265D01*
X123842897Y-101901025D01*
X123856848Y-101881823D01*
X123864181Y-101859255D01*
X123870126Y-101844903D01*
X123877360Y-101830706D01*
X123877361Y-101830702D01*
X123880898Y-101823761D01*
X123884610Y-101800326D01*
X123888236Y-101785221D01*
X123893162Y-101770059D01*
X123895569Y-101762652D01*
X123895569Y-101637348D01*
X123895523Y-101637207D01*
X123895500Y-101636913D01*
X123895500Y-101369500D01*
X123914407Y-101311309D01*
X123963907Y-101275345D01*
X123994500Y-101270500D01*
X124009913Y-101270500D01*
X124013404Y-101270000D01*
X124013405Y-101270000D01*
X124042761Y-101265796D01*
X124108457Y-101256387D01*
X124162868Y-101231648D01*
X124224762Y-101203507D01*
X124224763Y-101203506D01*
X124231186Y-101200586D01*
X124297201Y-101143704D01*
X124327975Y-101117187D01*
X124327976Y-101117186D01*
X124333319Y-101112582D01*
X124406648Y-100999449D01*
X124406982Y-100999666D01*
X124445486Y-100958082D01*
X124493787Y-100945500D01*
X126631158Y-100945500D01*
X126689349Y-100964407D01*
X126698359Y-100971802D01*
X126743842Y-101013846D01*
X126751324Y-101017154D01*
X126751326Y-101017155D01*
X126850027Y-101060790D01*
X126850029Y-101060791D01*
X126856617Y-101063703D01*
X126910421Y-101070500D01*
X128155040Y-101070500D01*
X128164249Y-101068967D01*
X128224752Y-101078065D01*
X128268355Y-101120989D01*
X128279500Y-101166624D01*
X128279500Y-105645296D01*
X128260593Y-105703487D01*
X128211093Y-105739451D01*
X128149907Y-105739451D01*
X128100407Y-105703487D01*
X128086345Y-105675889D01*
X128074250Y-105638664D01*
X128074249Y-105638663D01*
X128072648Y-105633734D01*
X128058686Y-105609550D01*
X127981113Y-105475190D01*
X127981112Y-105475189D01*
X127978520Y-105470699D01*
X127875427Y-105356203D01*
X127856022Y-105334651D01*
X127856018Y-105334648D01*
X127852552Y-105330798D01*
X127700250Y-105220144D01*
X127580217Y-105166702D01*
X127533008Y-105145683D01*
X127533004Y-105145682D01*
X127528270Y-105143574D01*
X127344128Y-105104433D01*
X127155872Y-105104433D01*
X126971730Y-105143574D01*
X126966996Y-105145682D01*
X126966992Y-105145683D01*
X126919783Y-105166702D01*
X126799750Y-105220144D01*
X126647448Y-105330798D01*
X126643982Y-105334648D01*
X126643978Y-105334651D01*
X126624573Y-105356203D01*
X126521480Y-105470699D01*
X126518888Y-105475189D01*
X126518887Y-105475190D01*
X126441315Y-105609550D01*
X126427352Y-105633734D01*
X126425751Y-105638663D01*
X126425750Y-105638664D01*
X126385570Y-105762325D01*
X126349606Y-105811825D01*
X126291415Y-105830732D01*
X126233224Y-105811825D01*
X126196945Y-105761337D01*
X126152252Y-105618720D01*
X126148321Y-105609550D01*
X126057160Y-105445092D01*
X126051461Y-105436892D01*
X125929093Y-105294122D01*
X125921860Y-105287235D01*
X125773281Y-105171984D01*
X125764827Y-105166702D01*
X125596100Y-105083678D01*
X125586747Y-105080199D01*
X125440174Y-105042020D01*
X125427775Y-105042756D01*
X125425000Y-105052245D01*
X125425000Y-106076000D01*
X125406093Y-106134191D01*
X125356593Y-106170155D01*
X125326000Y-106175000D01*
X124306361Y-106175000D01*
X124285947Y-106181633D01*
X124224762Y-106181633D01*
X124220423Y-106179118D01*
X124201217Y-106175000D01*
X123440680Y-106175000D01*
X123427995Y-106179122D01*
X123425000Y-106183243D01*
X123425000Y-106945751D01*
X123427933Y-106954778D01*
X123427932Y-107004783D01*
X123428626Y-107004893D01*
X123427932Y-107009274D01*
X123427932Y-107015964D01*
X123426395Y-107018981D01*
X123425000Y-107027789D01*
X123425000Y-108964320D01*
X123429122Y-108977005D01*
X123433243Y-108980000D01*
X123923870Y-108980000D01*
X123926137Y-108979947D01*
X123947423Y-108978963D01*
X123958646Y-108977133D01*
X124052130Y-108950535D01*
X124068268Y-108942498D01*
X124143078Y-108886005D01*
X124155226Y-108872679D01*
X124204574Y-108792979D01*
X124211090Y-108776158D01*
X124229158Y-108679507D01*
X124230000Y-108670417D01*
X124230000Y-108383942D01*
X124248907Y-108325751D01*
X124298407Y-108289787D01*
X124359593Y-108289787D01*
X124409093Y-108325751D01*
X124423155Y-108353349D01*
X124427352Y-108366266D01*
X124429943Y-108370754D01*
X124429944Y-108370756D01*
X124462781Y-108427631D01*
X124521480Y-108529301D01*
X124524952Y-108533157D01*
X124643978Y-108665349D01*
X124643982Y-108665352D01*
X124647448Y-108669202D01*
X124799750Y-108779856D01*
X124849779Y-108802130D01*
X124966992Y-108854317D01*
X124966996Y-108854318D01*
X124971730Y-108856426D01*
X125155872Y-108895567D01*
X125344128Y-108895567D01*
X125528270Y-108856426D01*
X125533004Y-108854318D01*
X125533008Y-108854317D01*
X125650221Y-108802130D01*
X125700250Y-108779856D01*
X125852552Y-108669202D01*
X125856018Y-108665352D01*
X125856022Y-108665349D01*
X125975048Y-108533157D01*
X125978520Y-108529301D01*
X126037219Y-108427631D01*
X126070056Y-108370756D01*
X126070057Y-108370754D01*
X126072648Y-108366266D01*
X126115248Y-108235156D01*
X126151212Y-108185656D01*
X126209403Y-108166748D01*
X126267593Y-108185655D01*
X126304819Y-108240431D01*
X126305147Y-108242597D01*
X126373226Y-108427631D01*
X126375866Y-108431889D01*
X126375867Y-108431891D01*
X126474477Y-108590933D01*
X126477121Y-108595197D01*
X126612588Y-108738449D01*
X126616692Y-108741323D01*
X126616696Y-108741326D01*
X126726582Y-108818268D01*
X126774093Y-108851535D01*
X126778689Y-108853524D01*
X126778691Y-108853525D01*
X126853748Y-108886005D01*
X126955038Y-108929837D01*
X126959937Y-108930861D01*
X126959942Y-108930862D01*
X127144307Y-108969378D01*
X127144310Y-108969378D01*
X127148032Y-108970156D01*
X127154596Y-108970500D01*
X128234834Y-108970500D01*
X128237598Y-108970539D01*
X128316431Y-108972741D01*
X128321444Y-108972881D01*
X128355815Y-108966820D01*
X128385928Y-108966163D01*
X128419166Y-108970539D01*
X128444314Y-108973850D01*
X128444315Y-108973850D01*
X128448682Y-108974425D01*
X128596066Y-108967474D01*
X128661912Y-108964369D01*
X128661914Y-108964369D01*
X128666319Y-108964161D01*
X128670618Y-108963176D01*
X128670621Y-108963176D01*
X128874401Y-108916504D01*
X128874405Y-108916503D01*
X128878700Y-108915519D01*
X129014715Y-108857504D01*
X129075051Y-108831769D01*
X129075054Y-108831768D01*
X129079111Y-108830037D01*
X129082794Y-108827617D01*
X129082799Y-108827615D01*
X129258177Y-108712413D01*
X129258178Y-108712412D01*
X129261217Y-108710416D01*
X129301709Y-108674338D01*
X130301067Y-107674981D01*
X130310803Y-107666443D01*
X130326014Y-107654771D01*
X130329512Y-107652087D01*
X130384010Y-107592194D01*
X130387230Y-107588818D01*
X130402640Y-107573408D01*
X130404038Y-107571735D01*
X130404048Y-107571725D01*
X130418727Y-107554168D01*
X130421436Y-107551063D01*
X130476147Y-107490936D01*
X130477293Y-107491980D01*
X130522395Y-107460640D01*
X130583567Y-107461927D01*
X130632299Y-107498924D01*
X130650000Y-107555417D01*
X130650000Y-109551000D01*
X130631093Y-109609191D01*
X130581593Y-109645155D01*
X130551000Y-109650000D01*
X120449000Y-109650000D01*
X120390809Y-109631093D01*
X120354845Y-109581593D01*
X120350000Y-109551000D01*
X120350000Y-108183243D01*
X122270000Y-108183243D01*
X122270000Y-108673870D01*
X122270053Y-108676137D01*
X122271037Y-108697423D01*
X122272867Y-108708646D01*
X122299465Y-108802130D01*
X122307502Y-108818268D01*
X122363995Y-108893078D01*
X122377321Y-108905226D01*
X122457021Y-108954574D01*
X122473842Y-108961090D01*
X122570493Y-108979158D01*
X122579583Y-108980000D01*
X123059320Y-108980000D01*
X123072005Y-108975878D01*
X123075000Y-108971757D01*
X123075000Y-108190680D01*
X123070878Y-108177995D01*
X123066757Y-108175000D01*
X122285680Y-108175000D01*
X122272995Y-108179122D01*
X122270000Y-108183243D01*
X120350000Y-108183243D01*
X120350000Y-107329583D01*
X122270000Y-107329583D01*
X122270000Y-107809320D01*
X122274122Y-107822005D01*
X122278243Y-107825000D01*
X123059320Y-107825000D01*
X123072005Y-107820878D01*
X123075000Y-107816757D01*
X123075000Y-107035680D01*
X123071481Y-107024850D01*
X123069371Y-106971147D01*
X123075000Y-106947700D01*
X123075000Y-106190680D01*
X123070878Y-106177995D01*
X123066757Y-106175000D01*
X122306361Y-106175000D01*
X122293689Y-106179117D01*
X122293205Y-106187518D01*
X122312836Y-106284881D01*
X122315786Y-106294408D01*
X122389261Y-106467506D01*
X122394063Y-106476241D01*
X122500846Y-106631032D01*
X122507313Y-106638631D01*
X122643030Y-106768778D01*
X122650897Y-106774924D01*
X122749832Y-106837227D01*
X122788997Y-106884235D01*
X122793052Y-106945285D01*
X122760448Y-106997060D01*
X122703638Y-107019782D01*
X122697077Y-107020000D01*
X122576130Y-107020000D01*
X122573863Y-107020053D01*
X122552577Y-107021037D01*
X122541354Y-107022867D01*
X122447870Y-107049465D01*
X122431732Y-107057502D01*
X122356922Y-107113995D01*
X122344774Y-107127321D01*
X122295426Y-107207021D01*
X122288910Y-107223842D01*
X122270842Y-107320493D01*
X122270000Y-107329583D01*
X120350000Y-107329583D01*
X120350000Y-105809651D01*
X122293734Y-105809651D01*
X122295162Y-105822789D01*
X122303473Y-105825000D01*
X123059320Y-105825000D01*
X123072005Y-105820878D01*
X123075000Y-105816757D01*
X123075000Y-105056076D01*
X123073755Y-105052245D01*
X123425000Y-105052245D01*
X123425000Y-105809320D01*
X123429122Y-105822005D01*
X123433243Y-105825000D01*
X124196545Y-105825000D01*
X124216885Y-105818391D01*
X124272935Y-105816874D01*
X124303474Y-105825000D01*
X125059320Y-105825000D01*
X125072005Y-105820878D01*
X125075000Y-105816757D01*
X125075000Y-105056076D01*
X125070878Y-105043391D01*
X125069839Y-105042636D01*
X125063589Y-105042122D01*
X125011238Y-105050040D01*
X125001581Y-105052519D01*
X124825099Y-105117452D01*
X124816136Y-105121823D01*
X124656322Y-105220912D01*
X124648414Y-105227002D01*
X124511788Y-105356203D01*
X124505268Y-105363757D01*
X124397411Y-105517792D01*
X124392544Y-105526499D01*
X124342139Y-105642980D01*
X124301676Y-105688876D01*
X124241964Y-105702224D01*
X124185811Y-105677924D01*
X124156811Y-105633268D01*
X124152252Y-105618720D01*
X124148321Y-105609550D01*
X124057160Y-105445092D01*
X124051461Y-105436892D01*
X123929093Y-105294122D01*
X123921860Y-105287235D01*
X123773281Y-105171984D01*
X123764827Y-105166702D01*
X123596100Y-105083678D01*
X123586747Y-105080199D01*
X123440174Y-105042020D01*
X123427775Y-105042756D01*
X123425000Y-105052245D01*
X123073755Y-105052245D01*
X123070878Y-105043391D01*
X123069839Y-105042636D01*
X123063589Y-105042122D01*
X123011238Y-105050040D01*
X123001581Y-105052519D01*
X122825099Y-105117452D01*
X122816136Y-105121823D01*
X122656322Y-105220912D01*
X122648414Y-105227002D01*
X122511788Y-105356203D01*
X122505268Y-105363757D01*
X122397411Y-105517792D01*
X122392546Y-105526496D01*
X122317862Y-105699082D01*
X122314849Y-105708582D01*
X122293734Y-105809651D01*
X120350000Y-105809651D01*
X120350000Y-98833243D01*
X122475000Y-98833243D01*
X122475000Y-98933126D01*
X122475458Y-98939845D01*
X122489529Y-99042568D01*
X122493123Y-99055441D01*
X122547594Y-99181315D01*
X122554519Y-99192748D01*
X122640828Y-99299332D01*
X122650579Y-99308489D01*
X122762370Y-99387934D01*
X122774220Y-99394129D01*
X122903992Y-99440850D01*
X122915545Y-99443496D01*
X122974864Y-99449730D01*
X122980009Y-99450000D01*
X123309320Y-99450000D01*
X123322005Y-99445878D01*
X123325000Y-99441757D01*
X123325000Y-98840680D01*
X123322583Y-98833243D01*
X123675000Y-98833243D01*
X123675000Y-99434320D01*
X123679122Y-99447005D01*
X123683243Y-99450000D01*
X124008126Y-99450000D01*
X124014845Y-99449542D01*
X124117568Y-99435471D01*
X124130441Y-99431877D01*
X124193869Y-99404429D01*
X124625000Y-99404429D01*
X124625000Y-99409320D01*
X124629122Y-99422005D01*
X124633243Y-99425000D01*
X125471820Y-99425000D01*
X125484505Y-99420878D01*
X125487500Y-99416757D01*
X125487500Y-99015680D01*
X125483378Y-99002995D01*
X125479257Y-99000000D01*
X125045443Y-99000000D01*
X125038086Y-99000550D01*
X124948529Y-99014014D01*
X124934541Y-99018317D01*
X124825921Y-99070476D01*
X124813821Y-99078698D01*
X124725338Y-99160492D01*
X124716186Y-99171915D01*
X124655670Y-99276101D01*
X124650280Y-99289717D01*
X124626275Y-99393280D01*
X124625000Y-99404429D01*
X124193869Y-99404429D01*
X124256315Y-99377406D01*
X124267748Y-99370481D01*
X124374332Y-99284172D01*
X124383489Y-99274421D01*
X124462934Y-99162630D01*
X124469129Y-99150780D01*
X124515850Y-99021008D01*
X124518496Y-99009455D01*
X124524730Y-98950136D01*
X124525000Y-98944991D01*
X124525000Y-98840680D01*
X124520878Y-98827995D01*
X124516757Y-98825000D01*
X123690680Y-98825000D01*
X123677995Y-98829122D01*
X123675000Y-98833243D01*
X123322583Y-98833243D01*
X123320878Y-98827995D01*
X123316757Y-98825000D01*
X122490680Y-98825000D01*
X122477995Y-98829122D01*
X122475000Y-98833243D01*
X120350000Y-98833243D01*
X120350000Y-98355009D01*
X122475000Y-98355009D01*
X122475000Y-98459320D01*
X122479122Y-98472005D01*
X122483243Y-98475000D01*
X123309320Y-98475000D01*
X123322005Y-98470878D01*
X123325000Y-98466757D01*
X123325000Y-97865680D01*
X123322583Y-97858243D01*
X123675000Y-97858243D01*
X123675000Y-98459320D01*
X123679122Y-98472005D01*
X123683243Y-98475000D01*
X124509320Y-98475000D01*
X124522005Y-98470878D01*
X124525000Y-98466757D01*
X124525000Y-98366874D01*
X124524542Y-98360155D01*
X124510471Y-98257432D01*
X124506877Y-98244559D01*
X124452406Y-98118685D01*
X124445481Y-98107252D01*
X124359172Y-98000668D01*
X124349421Y-97991511D01*
X124237630Y-97912066D01*
X124219798Y-97902744D01*
X124220576Y-97901255D01*
X124178830Y-97868876D01*
X124169822Y-97837876D01*
X124141917Y-97856842D01*
X124092191Y-97858275D01*
X124084462Y-97856505D01*
X124025136Y-97850270D01*
X124019991Y-97850000D01*
X123690680Y-97850000D01*
X123677995Y-97854122D01*
X123675000Y-97858243D01*
X123322583Y-97858243D01*
X123320878Y-97852995D01*
X123316757Y-97850000D01*
X122991874Y-97850000D01*
X122985155Y-97850458D01*
X122882432Y-97864529D01*
X122869559Y-97868123D01*
X122743685Y-97922594D01*
X122732252Y-97929519D01*
X122625668Y-98015828D01*
X122616511Y-98025579D01*
X122537066Y-98137370D01*
X122530871Y-98149220D01*
X122484150Y-98278992D01*
X122481504Y-98290545D01*
X122475270Y-98349864D01*
X122475000Y-98355009D01*
X120350000Y-98355009D01*
X120350000Y-96883243D01*
X123850000Y-96883243D01*
X123850000Y-97208126D01*
X123850458Y-97214845D01*
X123864529Y-97317568D01*
X123868123Y-97330441D01*
X123922594Y-97456315D01*
X123929519Y-97467748D01*
X124015828Y-97574332D01*
X124025579Y-97583489D01*
X124137370Y-97662934D01*
X124155202Y-97672256D01*
X124154424Y-97673745D01*
X124196170Y-97706124D01*
X124205178Y-97737124D01*
X124233083Y-97718158D01*
X124282809Y-97716725D01*
X124290538Y-97718495D01*
X124349864Y-97724730D01*
X124355009Y-97725000D01*
X124459320Y-97725000D01*
X124472005Y-97720878D01*
X124475000Y-97716757D01*
X124475000Y-96890680D01*
X124472583Y-96883243D01*
X124825000Y-96883243D01*
X124825000Y-97709320D01*
X124829122Y-97722005D01*
X124833243Y-97725000D01*
X124933126Y-97725000D01*
X124939845Y-97724542D01*
X125042568Y-97710471D01*
X125055441Y-97706877D01*
X125181315Y-97652406D01*
X125192748Y-97645481D01*
X125299332Y-97559172D01*
X125308489Y-97549421D01*
X125387934Y-97437630D01*
X125394129Y-97425780D01*
X125440850Y-97296008D01*
X125443496Y-97284455D01*
X125449730Y-97225136D01*
X125450000Y-97219991D01*
X125450000Y-96890680D01*
X125445878Y-96877995D01*
X125441757Y-96875000D01*
X124840680Y-96875000D01*
X124827995Y-96879122D01*
X124825000Y-96883243D01*
X124472583Y-96883243D01*
X124470878Y-96877995D01*
X124466757Y-96875000D01*
X123865680Y-96875000D01*
X123852995Y-96879122D01*
X123850000Y-96883243D01*
X120350000Y-96883243D01*
X120350000Y-96180009D01*
X123850000Y-96180009D01*
X123850000Y-96509320D01*
X123854122Y-96522005D01*
X123858243Y-96525000D01*
X124459320Y-96525000D01*
X124472005Y-96520878D01*
X124475000Y-96516757D01*
X124475000Y-95690680D01*
X124472583Y-95683243D01*
X124825000Y-95683243D01*
X124825000Y-96509320D01*
X124829122Y-96522005D01*
X124833243Y-96525000D01*
X125434320Y-96525000D01*
X125447005Y-96520878D01*
X125450000Y-96516757D01*
X125450000Y-96191874D01*
X125449542Y-96185155D01*
X125435471Y-96082432D01*
X125431877Y-96069559D01*
X125377406Y-95943685D01*
X125370481Y-95932252D01*
X125284172Y-95825668D01*
X125274421Y-95816511D01*
X125162630Y-95737066D01*
X125150780Y-95730871D01*
X125021008Y-95684150D01*
X125009455Y-95681504D01*
X124950136Y-95675270D01*
X124944991Y-95675000D01*
X124840680Y-95675000D01*
X124827995Y-95679122D01*
X124825000Y-95683243D01*
X124472583Y-95683243D01*
X124470878Y-95677995D01*
X124466757Y-95675000D01*
X124366874Y-95675000D01*
X124360155Y-95675458D01*
X124257432Y-95689529D01*
X124244559Y-95693123D01*
X124118685Y-95747594D01*
X124107252Y-95754519D01*
X124000668Y-95840828D01*
X123991511Y-95850579D01*
X123912066Y-95962370D01*
X123905871Y-95974220D01*
X123859150Y-96103992D01*
X123856504Y-96115545D01*
X123850270Y-96174864D01*
X123850000Y-96180009D01*
X120350000Y-96180009D01*
X120350000Y-94433243D01*
X122270000Y-94433243D01*
X122270000Y-94923870D01*
X122270053Y-94926137D01*
X122271037Y-94947423D01*
X122272867Y-94958646D01*
X122299465Y-95052130D01*
X122307502Y-95068268D01*
X122363995Y-95143078D01*
X122377321Y-95155226D01*
X122457021Y-95204574D01*
X122473842Y-95211090D01*
X122570493Y-95229158D01*
X122579583Y-95230000D01*
X123059320Y-95230000D01*
X123072005Y-95225878D01*
X123075000Y-95221757D01*
X123075000Y-94440680D01*
X123070878Y-94427995D01*
X123066757Y-94425000D01*
X122285680Y-94425000D01*
X122272995Y-94429122D01*
X122270000Y-94433243D01*
X120350000Y-94433243D01*
X120350000Y-90449000D01*
X120368907Y-90390809D01*
X120418407Y-90354845D01*
X120449000Y-90350000D01*
X141051000Y-90350000D01*
X141109191Y-90368907D01*
G37*
%TD.AperFunction*%
%TD*%
M02*
