%TF.GenerationSoftware,KiCad,Pcbnew,(5.99.0-8941-ge2f8b1a4b1)*%
%TF.CreationDate,2021-03-10T21:29:07+01:00*%
%TF.ProjectId,mod,6d6f642e-6b69-4636-9164-5f7063625858,rev?*%
%TF.SameCoordinates,Original*%
%TF.FileFunction,Copper,L1,Top*%
%TF.FilePolarity,Positive*%
%FSLAX46Y46*%
G04 Gerber Fmt 4.6, Leading zero omitted, Abs format (unit mm)*
G04 Created by KiCad (PCBNEW (5.99.0-8941-ge2f8b1a4b1)) date 2021-03-10 21:29:07*
%MOMM*%
%LPD*%
G01*
G04 APERTURE LIST*
G04 Aperture macros list*
%AMRoundRect*
0 Rectangle with rounded corners*
0 $1 Rounding radius*
0 $2 $3 $4 $5 $6 $7 $8 $9 X,Y pos of 4 corners*
0 Add a 4 corners polygon primitive as box body*
4,1,4,$2,$3,$4,$5,$6,$7,$8,$9,$2,$3,0*
0 Add four circle primitives for the rounded corners*
1,1,$1+$1,$2,$3*
1,1,$1+$1,$4,$5*
1,1,$1+$1,$6,$7*
1,1,$1+$1,$8,$9*
0 Add four rect primitives between the rounded corners*
20,1,$1+$1,$2,$3,$4,$5,0*
20,1,$1+$1,$4,$5,$6,$7,0*
20,1,$1+$1,$6,$7,$8,$9,0*
20,1,$1+$1,$8,$9,$2,$3,0*%
G04 Aperture macros list end*
%TA.AperFunction,ComponentPad*%
%ADD10R,1.700000X1.700000*%
%TD*%
%TA.AperFunction,ComponentPad*%
%ADD11O,1.700000X1.700000*%
%TD*%
%TA.AperFunction,ComponentPad*%
%ADD12R,1.350000X1.350000*%
%TD*%
%TA.AperFunction,ComponentPad*%
%ADD13O,1.350000X1.350000*%
%TD*%
%TA.AperFunction,SMDPad,CuDef*%
%ADD14RoundRect,0.250000X-0.475000X0.250000X-0.475000X-0.250000X0.475000X-0.250000X0.475000X0.250000X0*%
%TD*%
%TA.AperFunction,SMDPad,CuDef*%
%ADD15RoundRect,0.150000X0.150000X-0.825000X0.150000X0.825000X-0.150000X0.825000X-0.150000X-0.825000X0*%
%TD*%
%TA.AperFunction,ViaPad*%
%ADD16C,0.800000*%
%TD*%
%TA.AperFunction,Conductor*%
%ADD17C,0.350000*%
%TD*%
%TA.AperFunction,Conductor*%
%ADD18C,0.200000*%
%TD*%
G04 APERTURE END LIST*
D10*
%TO.P,J3,1,Pin_1*%
%TO.N,Net-(J3-Pad1)*%
X138200000Y-92975000D03*
D11*
%TO.P,J3,2,Pin_2*%
%TO.N,Net-(J3-Pad2)*%
X138200000Y-95515000D03*
%TO.P,J3,3,Pin_3*%
%TO.N,GND*%
X138200000Y-98055000D03*
%TD*%
D10*
%TO.P,J5,1,Pin_1*%
%TO.N,/SDA*%
X135200000Y-98050000D03*
D11*
%TO.P,J5,2,Pin_2*%
%TO.N,/SCL*%
X135200000Y-95510000D03*
%TO.P,J5,3,Pin_3*%
%TO.N,GND*%
X135200000Y-92970000D03*
%TD*%
D12*
%TO.P,J2,1,Pin_1*%
%TO.N,GND*%
X123250000Y-94250000D03*
D13*
%TO.P,J2,2,Pin_2*%
%TO.N,unconnected-(J2-Pad2)*%
X123250000Y-92250000D03*
%TO.P,J2,3,Pin_3*%
%TO.N,/PWM_OUT*%
X125250000Y-94250000D03*
%TO.P,J2,4,Pin_4*%
%TO.N,unconnected-(J2-Pad4)*%
X125250000Y-92250000D03*
%TO.P,J2,5,Pin_5*%
%TO.N,+12V*%
X127250000Y-94250000D03*
%TO.P,J2,6,Pin_6*%
%TO.N,unconnected-(J2-Pad6)*%
X127250000Y-92250000D03*
%TD*%
D12*
%TO.P,J1,1,Pin_1*%
%TO.N,GND*%
X123250000Y-108000000D03*
D13*
%TO.P,J1,2,Pin_2*%
X123250000Y-106000000D03*
%TO.P,J1,3,Pin_3*%
%TO.N,/PWM_IN*%
X125250000Y-108000000D03*
%TO.P,J1,4,Pin_4*%
%TO.N,GND*%
X125250000Y-106000000D03*
%TO.P,J1,5,Pin_5*%
%TO.N,+12V*%
X127250000Y-108000000D03*
%TO.P,J1,6,Pin_6*%
%TO.N,unconnected-(J1-Pad6)*%
X127250000Y-106000000D03*
%TD*%
D10*
%TO.P,J4,1,Pin_1*%
%TO.N,/SDA*%
X132200000Y-98025000D03*
D11*
%TO.P,J4,2,Pin_2*%
%TO.N,/SCL*%
X132200000Y-95485000D03*
%TO.P,J4,3,Pin_3*%
%TO.N,GND*%
X132200000Y-92945000D03*
%TD*%
D14*
%TO.P,C2,1*%
%TO.N,GND*%
X122000000Y-98950000D03*
%TO.P,C2,2*%
%TO.N,Net-(C1-Pad1)*%
X122000000Y-100850000D03*
%TD*%
D15*
%TO.P,U2,1,VCC*%
%TO.N,Net-(C1-Pad1)*%
X124095000Y-102475000D03*
%TO.P,U2,2,PA6*%
%TO.N,/PWM_IN*%
X125365000Y-102475000D03*
%TO.P,U2,3,PA7*%
%TO.N,unconnected-(U2-Pad3)*%
X126635000Y-102475000D03*
%TO.P,U2,4,PA1*%
%TO.N,/SDA*%
X127905000Y-102475000D03*
%TO.P,U2,5,PA2*%
%TO.N,/SCL*%
X127905000Y-97525000D03*
%TO.P,U2,6,~RESET~/PA0*%
%TO.N,Net-(J3-Pad2)*%
X126635000Y-97525000D03*
%TO.P,U2,7,PA3*%
%TO.N,/PWM_OUT*%
X125365000Y-97525000D03*
%TO.P,U2,8,GND*%
%TO.N,GND*%
X124095000Y-97525000D03*
%TD*%
D16*
%TO.N,Net-(C1-Pad1)*%
X122900000Y-102300000D03*
%TO.N,GND*%
X121800000Y-96800000D03*
X122400000Y-103800000D03*
X129571258Y-93484979D03*
%TD*%
D17*
%TO.N,Net-(C1-Pad1)*%
X122900000Y-102300000D02*
X122300000Y-102300000D01*
X122300000Y-102300000D02*
X122000000Y-102000000D01*
X122000000Y-102000000D02*
X122000000Y-100850000D01*
X122000000Y-100850000D02*
X123850000Y-100850000D01*
X123850000Y-100850000D02*
X124100000Y-101100000D01*
X124100000Y-101100000D02*
X124100000Y-102470000D01*
X124100000Y-102470000D02*
X124095000Y-102475000D01*
D18*
%TO.N,/PWM_IN*%
X125365000Y-102475000D02*
X125365000Y-104565000D01*
X125365000Y-104565000D02*
X126225011Y-105425011D01*
X126225011Y-105425011D02*
X126225011Y-107024989D01*
X126225011Y-107024989D02*
X125250000Y-108000000D01*
D17*
%TO.N,/PWM_OUT*%
X125200000Y-95600000D02*
X125200000Y-94300000D01*
X125365000Y-97525000D02*
X125365000Y-95765000D01*
X125365000Y-95765000D02*
X125200000Y-95600000D01*
X125200000Y-94300000D02*
X125250000Y-94250000D01*
%TO.N,Net-(J3-Pad2)*%
X129540011Y-94259989D02*
X128100000Y-95700000D01*
X126635000Y-96365000D02*
X126635000Y-97525000D01*
X138200000Y-95515000D02*
X137215000Y-95515000D01*
X137215000Y-95515000D02*
X135959989Y-94259989D01*
X127300000Y-95700000D02*
X126635000Y-96365000D01*
X135959989Y-94259989D02*
X129540011Y-94259989D01*
X128100000Y-95700000D02*
X127300000Y-95700000D01*
%TO.N,/SCL*%
X131985000Y-95700000D02*
X132200000Y-95485000D01*
X128900000Y-95700000D02*
X131985000Y-95700000D01*
X127905000Y-96695000D02*
X128900000Y-95700000D01*
X127905000Y-97525000D02*
X127905000Y-96695000D01*
%TO.N,/SDA*%
X130175000Y-98025000D02*
X127905000Y-100295000D01*
X132200000Y-98025000D02*
X130175000Y-98025000D01*
X127905000Y-100295000D02*
X127905000Y-102475000D01*
%TD*%
%TA.AperFunction,Conductor*%
%TO.N,GND*%
G36*
X141109191Y-90368907D02*
G01*
X141145155Y-90418407D01*
X141150000Y-90449000D01*
X141150000Y-99551000D01*
X141131093Y-99609191D01*
X141081593Y-99645155D01*
X141051000Y-99650000D01*
X131021527Y-99650000D01*
X131012984Y-99649631D01*
X130980300Y-99646800D01*
X130980299Y-99646800D01*
X130972147Y-99646094D01*
X130964206Y-99648067D01*
X130964201Y-99648067D01*
X130932695Y-99655893D01*
X130925086Y-99657469D01*
X130913374Y-99659419D01*
X130885009Y-99664140D01*
X130877808Y-99668025D01*
X130872291Y-99669914D01*
X130866951Y-99672225D01*
X130859012Y-99674197D01*
X130852138Y-99678636D01*
X130852137Y-99678636D01*
X130824869Y-99696242D01*
X130818181Y-99700198D01*
X130782418Y-99719495D01*
X130776863Y-99725504D01*
X130772260Y-99729075D01*
X130767955Y-99732993D01*
X130761081Y-99737431D01*
X130756015Y-99743857D01*
X130735927Y-99769337D01*
X130730881Y-99775245D01*
X130708842Y-99799088D01*
X130708841Y-99799090D01*
X130703288Y-99805097D01*
X130699980Y-99812580D01*
X130696783Y-99817447D01*
X130693977Y-99822551D01*
X130688911Y-99828977D01*
X130686201Y-99836694D01*
X130686200Y-99836696D01*
X130675445Y-99867323D01*
X130672583Y-99874551D01*
X130656153Y-99911715D01*
X130655447Y-99919870D01*
X130653618Y-99926992D01*
X130653661Y-99927001D01*
X130652351Y-99933085D01*
X130650286Y-99938965D01*
X130650000Y-99942267D01*
X130650000Y-99978473D01*
X130649631Y-99987016D01*
X130646094Y-100027853D01*
X130648067Y-100035795D01*
X130648709Y-100043952D01*
X130648566Y-100043963D01*
X130650000Y-100055689D01*
X130650000Y-109551000D01*
X130631093Y-109609191D01*
X130581593Y-109645155D01*
X130551000Y-109650000D01*
X120449000Y-109650000D01*
X120390809Y-109631093D01*
X120354845Y-109581593D01*
X120350000Y-109551000D01*
X120350000Y-108183243D01*
X122270000Y-108183243D01*
X122270000Y-108673870D01*
X122270053Y-108676137D01*
X122271037Y-108697423D01*
X122272867Y-108708646D01*
X122299465Y-108802130D01*
X122307502Y-108818268D01*
X122363995Y-108893078D01*
X122377321Y-108905226D01*
X122457021Y-108954574D01*
X122473842Y-108961090D01*
X122570493Y-108979158D01*
X122579583Y-108980000D01*
X123059320Y-108980000D01*
X123072005Y-108975878D01*
X123075000Y-108971757D01*
X123075000Y-108190680D01*
X123070878Y-108177995D01*
X123066757Y-108175000D01*
X122285680Y-108175000D01*
X122272995Y-108179122D01*
X122270000Y-108183243D01*
X120350000Y-108183243D01*
X120350000Y-107329583D01*
X122270000Y-107329583D01*
X122270000Y-107809320D01*
X122274122Y-107822005D01*
X122278243Y-107825000D01*
X123059320Y-107825000D01*
X123072005Y-107820878D01*
X123075000Y-107816757D01*
X123075000Y-107035680D01*
X123071481Y-107024850D01*
X123069371Y-106971147D01*
X123075000Y-106947700D01*
X123075000Y-106190680D01*
X123070878Y-106177995D01*
X123066757Y-106175000D01*
X122306361Y-106175000D01*
X122293689Y-106179117D01*
X122293205Y-106187518D01*
X122312836Y-106284881D01*
X122315786Y-106294408D01*
X122389261Y-106467506D01*
X122394063Y-106476241D01*
X122500846Y-106631032D01*
X122507313Y-106638631D01*
X122643030Y-106768778D01*
X122650897Y-106774924D01*
X122749832Y-106837227D01*
X122788997Y-106884235D01*
X122793052Y-106945285D01*
X122760448Y-106997060D01*
X122703638Y-107019782D01*
X122697077Y-107020000D01*
X122576130Y-107020000D01*
X122573863Y-107020053D01*
X122552577Y-107021037D01*
X122541354Y-107022867D01*
X122447870Y-107049465D01*
X122431732Y-107057502D01*
X122356922Y-107113995D01*
X122344774Y-107127321D01*
X122295426Y-107207021D01*
X122288910Y-107223842D01*
X122270842Y-107320493D01*
X122270000Y-107329583D01*
X120350000Y-107329583D01*
X120350000Y-105809651D01*
X122293734Y-105809651D01*
X122295162Y-105822789D01*
X122303473Y-105825000D01*
X123059320Y-105825000D01*
X123072005Y-105820878D01*
X123075000Y-105816757D01*
X123075000Y-105056076D01*
X123073755Y-105052245D01*
X123425000Y-105052245D01*
X123425000Y-105809320D01*
X123429122Y-105822005D01*
X123433243Y-105825000D01*
X124196545Y-105825000D01*
X124216885Y-105818391D01*
X124272935Y-105816874D01*
X124303474Y-105825000D01*
X125326000Y-105825000D01*
X125384191Y-105843907D01*
X125420155Y-105893407D01*
X125425000Y-105924000D01*
X125425000Y-106076000D01*
X125406093Y-106134191D01*
X125356593Y-106170155D01*
X125326000Y-106175000D01*
X124306361Y-106175000D01*
X124285947Y-106181633D01*
X124224762Y-106181633D01*
X124220423Y-106179118D01*
X124201217Y-106175000D01*
X123440680Y-106175000D01*
X123427995Y-106179122D01*
X123425000Y-106183243D01*
X123425000Y-106945751D01*
X123427933Y-106954778D01*
X123427932Y-107004783D01*
X123428626Y-107004893D01*
X123427932Y-107009274D01*
X123427932Y-107015964D01*
X123426395Y-107018981D01*
X123425000Y-107027789D01*
X123425000Y-108964320D01*
X123429122Y-108977005D01*
X123433243Y-108980000D01*
X123923870Y-108980000D01*
X123926137Y-108979947D01*
X123947423Y-108978963D01*
X123958646Y-108977133D01*
X124052130Y-108950535D01*
X124068268Y-108942498D01*
X124143078Y-108886005D01*
X124155226Y-108872679D01*
X124204574Y-108792979D01*
X124211090Y-108776158D01*
X124229158Y-108679507D01*
X124230000Y-108670417D01*
X124230000Y-108383942D01*
X124248907Y-108325751D01*
X124298407Y-108289787D01*
X124359593Y-108289787D01*
X124409093Y-108325751D01*
X124423155Y-108353349D01*
X124427352Y-108366266D01*
X124521480Y-108529301D01*
X124524952Y-108533157D01*
X124643978Y-108665349D01*
X124643982Y-108665352D01*
X124647448Y-108669202D01*
X124799750Y-108779856D01*
X124849779Y-108802130D01*
X124966992Y-108854317D01*
X124966996Y-108854318D01*
X124971730Y-108856426D01*
X125155872Y-108895567D01*
X125344128Y-108895567D01*
X125528270Y-108856426D01*
X125533004Y-108854318D01*
X125533008Y-108854317D01*
X125650221Y-108802130D01*
X125700250Y-108779856D01*
X125852552Y-108669202D01*
X125856018Y-108665352D01*
X125856022Y-108665349D01*
X125975048Y-108533157D01*
X125978520Y-108529301D01*
X126072648Y-108366266D01*
X126085812Y-108325751D01*
X126129220Y-108192156D01*
X126129221Y-108192152D01*
X126130822Y-108187224D01*
X126150500Y-108000000D01*
X126349500Y-108000000D01*
X126369178Y-108187224D01*
X126370779Y-108192152D01*
X126370780Y-108192156D01*
X126414188Y-108325751D01*
X126427352Y-108366266D01*
X126521480Y-108529301D01*
X126524952Y-108533157D01*
X126643978Y-108665349D01*
X126643982Y-108665352D01*
X126647448Y-108669202D01*
X126799750Y-108779856D01*
X126849779Y-108802130D01*
X126966992Y-108854317D01*
X126966996Y-108854318D01*
X126971730Y-108856426D01*
X127155872Y-108895567D01*
X127344128Y-108895567D01*
X127528270Y-108856426D01*
X127533004Y-108854318D01*
X127533008Y-108854317D01*
X127650221Y-108802130D01*
X127700250Y-108779856D01*
X127852552Y-108669202D01*
X127856018Y-108665352D01*
X127856022Y-108665349D01*
X127975048Y-108533157D01*
X127978520Y-108529301D01*
X128072648Y-108366266D01*
X128085812Y-108325751D01*
X128129220Y-108192156D01*
X128129221Y-108192152D01*
X128130822Y-108187224D01*
X128150500Y-108000000D01*
X128130822Y-107812776D01*
X128092929Y-107696151D01*
X128074250Y-107638664D01*
X128074249Y-107638663D01*
X128072648Y-107633734D01*
X128046519Y-107588476D01*
X127981113Y-107475190D01*
X127981112Y-107475189D01*
X127978520Y-107470699D01*
X127909238Y-107393754D01*
X127856022Y-107334651D01*
X127856018Y-107334648D01*
X127852552Y-107330798D01*
X127700250Y-107220144D01*
X127586831Y-107169647D01*
X127533008Y-107145683D01*
X127533004Y-107145682D01*
X127528270Y-107143574D01*
X127344128Y-107104433D01*
X127155872Y-107104433D01*
X126971730Y-107143574D01*
X126966996Y-107145682D01*
X126966992Y-107145683D01*
X126913169Y-107169647D01*
X126799750Y-107220144D01*
X126647448Y-107330798D01*
X126639867Y-107339217D01*
X126610852Y-107355970D01*
X126590762Y-107393754D01*
X126521480Y-107470699D01*
X126518888Y-107475189D01*
X126518887Y-107475190D01*
X126453482Y-107588476D01*
X126427352Y-107633734D01*
X126425751Y-107638663D01*
X126425750Y-107638664D01*
X126407072Y-107696151D01*
X126369178Y-107812776D01*
X126349500Y-108000000D01*
X126150500Y-108000000D01*
X126130822Y-107812776D01*
X126129220Y-107807844D01*
X126129218Y-107807836D01*
X126090629Y-107689073D01*
X126090628Y-107627888D01*
X126114779Y-107588476D01*
X126438250Y-107265005D01*
X126444605Y-107259182D01*
X126453557Y-107251670D01*
X126474095Y-107243372D01*
X126480560Y-107223474D01*
X126493456Y-107201137D01*
X126498098Y-107193851D01*
X126515046Y-107169647D01*
X126520015Y-107162551D01*
X126522258Y-107154182D01*
X126524627Y-107149101D01*
X126526549Y-107143820D01*
X126530881Y-107136317D01*
X126532468Y-107127321D01*
X126537515Y-107098693D01*
X126539381Y-107090274D01*
X126549272Y-107053358D01*
X126545888Y-107014676D01*
X126545511Y-107006048D01*
X126545511Y-106789439D01*
X126564418Y-106731248D01*
X126613918Y-106695284D01*
X126675104Y-106695284D01*
X126702702Y-106709347D01*
X126795553Y-106776808D01*
X126795562Y-106776813D01*
X126799750Y-106779856D01*
X126900793Y-106824843D01*
X126966992Y-106854317D01*
X126966996Y-106854318D01*
X126971730Y-106856426D01*
X127155872Y-106895567D01*
X127344128Y-106895567D01*
X127528270Y-106856426D01*
X127533004Y-106854318D01*
X127533008Y-106854317D01*
X127599207Y-106824843D01*
X127700250Y-106779856D01*
X127852552Y-106669202D01*
X127856018Y-106665352D01*
X127856022Y-106665349D01*
X127975048Y-106533157D01*
X127978520Y-106529301D01*
X128072648Y-106366266D01*
X128075782Y-106356620D01*
X128129220Y-106192156D01*
X128129221Y-106192152D01*
X128130822Y-106187224D01*
X128150500Y-106000000D01*
X128130822Y-105812776D01*
X128096968Y-105708582D01*
X128074250Y-105638664D01*
X128074249Y-105638663D01*
X128072648Y-105633734D01*
X128058686Y-105609550D01*
X127981113Y-105475190D01*
X127981112Y-105475189D01*
X127978520Y-105470699D01*
X127948080Y-105436892D01*
X127856022Y-105334651D01*
X127856018Y-105334648D01*
X127852552Y-105330798D01*
X127700250Y-105220144D01*
X127580217Y-105166702D01*
X127533008Y-105145683D01*
X127533004Y-105145682D01*
X127528270Y-105143574D01*
X127344128Y-105104433D01*
X127155872Y-105104433D01*
X126971730Y-105143574D01*
X126966996Y-105145682D01*
X126966992Y-105145683D01*
X126919783Y-105166702D01*
X126799750Y-105220144D01*
X126795559Y-105223189D01*
X126663281Y-105319294D01*
X126605090Y-105338201D01*
X126546899Y-105319294D01*
X126520416Y-105287167D01*
X126520014Y-105287449D01*
X126516435Y-105282338D01*
X126498105Y-105256160D01*
X126493464Y-105248877D01*
X126478687Y-105223282D01*
X126474358Y-105215784D01*
X126444618Y-105190829D01*
X126438250Y-105184995D01*
X125714496Y-104461241D01*
X125686719Y-104406724D01*
X125685500Y-104391237D01*
X125685500Y-103687961D01*
X125704407Y-103629770D01*
X125731705Y-103605894D01*
X125731480Y-103605604D01*
X125736407Y-103601782D01*
X125737490Y-103600835D01*
X125737944Y-103600590D01*
X125737947Y-103600588D01*
X125745147Y-103596703D01*
X125828846Y-103506158D01*
X125878703Y-103393383D01*
X125885500Y-103339579D01*
X125885500Y-101619960D01*
X125883912Y-101610421D01*
X126114500Y-101610421D01*
X126114500Y-103330040D01*
X126129745Y-103421631D01*
X126188297Y-103530147D01*
X126278842Y-103613846D01*
X126286324Y-103617154D01*
X126286326Y-103617155D01*
X126385027Y-103660790D01*
X126385029Y-103660791D01*
X126391617Y-103663703D01*
X126445421Y-103670500D01*
X126815040Y-103670500D01*
X126906631Y-103655255D01*
X127015147Y-103596703D01*
X127098846Y-103506158D01*
X127148703Y-103393383D01*
X127155500Y-103339579D01*
X127155500Y-101619960D01*
X127153912Y-101610421D01*
X127384500Y-101610421D01*
X127384500Y-103330040D01*
X127399745Y-103421631D01*
X127458297Y-103530147D01*
X127548842Y-103613846D01*
X127556324Y-103617154D01*
X127556326Y-103617155D01*
X127655027Y-103660790D01*
X127655029Y-103660791D01*
X127661617Y-103663703D01*
X127715421Y-103670500D01*
X128085040Y-103670500D01*
X128176631Y-103655255D01*
X128285147Y-103596703D01*
X128368846Y-103506158D01*
X128418703Y-103393383D01*
X128425500Y-103339579D01*
X128425500Y-101619960D01*
X128410255Y-101528369D01*
X128351703Y-101419853D01*
X128343838Y-101412582D01*
X128332298Y-101401915D01*
X128302402Y-101348530D01*
X128300500Y-101329217D01*
X128300500Y-100499830D01*
X128319407Y-100441639D01*
X128329496Y-100429826D01*
X130309826Y-98449496D01*
X130364343Y-98421719D01*
X130379830Y-98420500D01*
X131025500Y-98420500D01*
X131083691Y-98439407D01*
X131119655Y-98488907D01*
X131124500Y-98519500D01*
X131124500Y-98875000D01*
X131141665Y-98961295D01*
X131190547Y-99034453D01*
X131263705Y-99083335D01*
X131350000Y-99100500D01*
X133050000Y-99100500D01*
X133136295Y-99083335D01*
X133209453Y-99034453D01*
X133258335Y-98961295D01*
X133275500Y-98875000D01*
X133275500Y-97200000D01*
X134124500Y-97200000D01*
X134124500Y-98900000D01*
X134141665Y-98986295D01*
X134147082Y-98994402D01*
X134177464Y-99039872D01*
X134190547Y-99059453D01*
X134263705Y-99108335D01*
X134350000Y-99125500D01*
X136050000Y-99125500D01*
X136136295Y-99108335D01*
X136209453Y-99059453D01*
X136222537Y-99039872D01*
X136252918Y-98994402D01*
X136258335Y-98986295D01*
X136275500Y-98900000D01*
X136275500Y-98236890D01*
X137059831Y-98236890D01*
X137060336Y-98240077D01*
X137110131Y-98436145D01*
X137113151Y-98444673D01*
X137197841Y-98628378D01*
X137202359Y-98636204D01*
X137319115Y-98801410D01*
X137324979Y-98808276D01*
X137469880Y-98949433D01*
X137476912Y-98955128D01*
X137645108Y-99067512D01*
X137653054Y-99071826D01*
X137838915Y-99151678D01*
X137847510Y-99154471D01*
X138009707Y-99191173D01*
X138022602Y-99189989D01*
X138025000Y-99181270D01*
X138025000Y-98245680D01*
X138022583Y-98238243D01*
X138375000Y-98238243D01*
X138375000Y-99176128D01*
X138379122Y-99188813D01*
X138380292Y-99189664D01*
X138386272Y-99190174D01*
X138465132Y-99178739D01*
X138473931Y-99176627D01*
X138665480Y-99111605D01*
X138673744Y-99107925D01*
X138850236Y-99009085D01*
X138857689Y-99003963D01*
X139013214Y-98874614D01*
X139019614Y-98868214D01*
X139148963Y-98712689D01*
X139154085Y-98705236D01*
X139252925Y-98528744D01*
X139256605Y-98520480D01*
X139321627Y-98328931D01*
X139323739Y-98320132D01*
X139334558Y-98245518D01*
X139332299Y-98232372D01*
X139331263Y-98231363D01*
X139325417Y-98230000D01*
X138390680Y-98230000D01*
X138377995Y-98234122D01*
X138375000Y-98238243D01*
X138022583Y-98238243D01*
X138020878Y-98232995D01*
X138016757Y-98230000D01*
X137074528Y-98230000D01*
X137061843Y-98234122D01*
X137059831Y-98236890D01*
X136275500Y-98236890D01*
X136275500Y-97864428D01*
X137064373Y-97864428D01*
X137066976Y-97877511D01*
X137068549Y-97878965D01*
X137073264Y-97880000D01*
X138009320Y-97880000D01*
X138022005Y-97875878D01*
X138025000Y-97871757D01*
X138025000Y-96933739D01*
X138023728Y-96929826D01*
X138375000Y-96929826D01*
X138375000Y-97864320D01*
X138379122Y-97877005D01*
X138383243Y-97880000D01*
X139323239Y-97880000D01*
X139335924Y-97875878D01*
X139337593Y-97873582D01*
X139337997Y-97869965D01*
X139336074Y-97849035D01*
X139334427Y-97840151D01*
X139279517Y-97645455D01*
X139276276Y-97637011D01*
X139186807Y-97455586D01*
X139182082Y-97447876D01*
X139061048Y-97285791D01*
X139054999Y-97279073D01*
X138906449Y-97141756D01*
X138899284Y-97136257D01*
X138728196Y-97028308D01*
X138720143Y-97024205D01*
X138532250Y-96949244D01*
X138523592Y-96946679D01*
X138390379Y-96920181D01*
X138377133Y-96921749D01*
X138377099Y-96921780D01*
X138375000Y-96929826D01*
X138023728Y-96929826D01*
X138020878Y-96921054D01*
X138020274Y-96920615D01*
X138013127Y-96920099D01*
X137905540Y-96938587D01*
X137896804Y-96940928D01*
X137707019Y-97010943D01*
X137698856Y-97014836D01*
X137525014Y-97118261D01*
X137517690Y-97123582D01*
X137365608Y-97256956D01*
X137359381Y-97263517D01*
X137234147Y-97422375D01*
X137229222Y-97429958D01*
X137135031Y-97608987D01*
X137131573Y-97617335D01*
X137071586Y-97810528D01*
X137069707Y-97819367D01*
X137064373Y-97864428D01*
X136275500Y-97864428D01*
X136275500Y-97200000D01*
X136258335Y-97113705D01*
X136209453Y-97040547D01*
X136136295Y-96991665D01*
X136050000Y-96974500D01*
X134350000Y-96974500D01*
X134263705Y-96991665D01*
X134190547Y-97040547D01*
X134141665Y-97113705D01*
X134124500Y-97200000D01*
X133275500Y-97200000D01*
X133275500Y-97175000D01*
X133258335Y-97088705D01*
X133226157Y-97040547D01*
X133214872Y-97023657D01*
X133209453Y-97015547D01*
X133136295Y-96966665D01*
X133050000Y-96949500D01*
X131350000Y-96949500D01*
X131263705Y-96966665D01*
X131190547Y-97015547D01*
X131185128Y-97023657D01*
X131173843Y-97040547D01*
X131141665Y-97088705D01*
X131124500Y-97175000D01*
X131124500Y-97530500D01*
X131105593Y-97588691D01*
X131056093Y-97624655D01*
X131025500Y-97629500D01*
X130238087Y-97629500D01*
X130237793Y-97629477D01*
X130237652Y-97629431D01*
X130112348Y-97629431D01*
X130090754Y-97636447D01*
X130089779Y-97636764D01*
X130074674Y-97640390D01*
X130058934Y-97642883D01*
X130058933Y-97642883D01*
X130051239Y-97644102D01*
X130044298Y-97647639D01*
X130044294Y-97647640D01*
X130030097Y-97654874D01*
X130015745Y-97660819D01*
X129993177Y-97668152D01*
X129973975Y-97682103D01*
X129960735Y-97690216D01*
X129946533Y-97697452D01*
X129946531Y-97697453D01*
X129939592Y-97700989D01*
X129850989Y-97789592D01*
X129850922Y-97789723D01*
X129850731Y-97789947D01*
X127669947Y-99970731D01*
X127669723Y-99970922D01*
X127669592Y-99970989D01*
X127580989Y-100059592D01*
X127577453Y-100066531D01*
X127577452Y-100066533D01*
X127570216Y-100080735D01*
X127562103Y-100093975D01*
X127548152Y-100113177D01*
X127540820Y-100135744D01*
X127534874Y-100150097D01*
X127527640Y-100164294D01*
X127527639Y-100164298D01*
X127524102Y-100171239D01*
X127522883Y-100178933D01*
X127522883Y-100178934D01*
X127520390Y-100194674D01*
X127516764Y-100209779D01*
X127509431Y-100232348D01*
X127509431Y-100357652D01*
X127509477Y-100357793D01*
X127509500Y-100358087D01*
X127509500Y-101331158D01*
X127490593Y-101389349D01*
X127483198Y-101398359D01*
X127475523Y-101406662D01*
X127441154Y-101443842D01*
X127437846Y-101451324D01*
X127437845Y-101451326D01*
X127401442Y-101533670D01*
X127391297Y-101556617D01*
X127384500Y-101610421D01*
X127153912Y-101610421D01*
X127140255Y-101528369D01*
X127081703Y-101419853D01*
X126991158Y-101336154D01*
X126983676Y-101332846D01*
X126983674Y-101332845D01*
X126884973Y-101289210D01*
X126884971Y-101289209D01*
X126878383Y-101286297D01*
X126824579Y-101279500D01*
X126454960Y-101279500D01*
X126363369Y-101294745D01*
X126254853Y-101353297D01*
X126171154Y-101443842D01*
X126167846Y-101451324D01*
X126167845Y-101451326D01*
X126131442Y-101533670D01*
X126121297Y-101556617D01*
X126114500Y-101610421D01*
X125883912Y-101610421D01*
X125870255Y-101528369D01*
X125811703Y-101419853D01*
X125721158Y-101336154D01*
X125713676Y-101332846D01*
X125713674Y-101332845D01*
X125614973Y-101289210D01*
X125614971Y-101289209D01*
X125608383Y-101286297D01*
X125554579Y-101279500D01*
X125184960Y-101279500D01*
X125093369Y-101294745D01*
X124984853Y-101353297D01*
X124901154Y-101443842D01*
X124897846Y-101451324D01*
X124897845Y-101451326D01*
X124861442Y-101533670D01*
X124851297Y-101556617D01*
X124844500Y-101610421D01*
X124844500Y-103330040D01*
X124859745Y-103421631D01*
X124918297Y-103530147D01*
X124990297Y-103596703D01*
X125008842Y-103613846D01*
X125007251Y-103615567D01*
X125038110Y-103654087D01*
X125044500Y-103689079D01*
X125044500Y-104546060D01*
X125044123Y-104554688D01*
X125040739Y-104593369D01*
X125050630Y-104630285D01*
X125052495Y-104638700D01*
X125059130Y-104676328D01*
X125063462Y-104683831D01*
X125065384Y-104689112D01*
X125067753Y-104694193D01*
X125069996Y-104702562D01*
X125074965Y-104709658D01*
X125091913Y-104733862D01*
X125096554Y-104741147D01*
X125115653Y-104774227D01*
X125122291Y-104779797D01*
X125145393Y-104799182D01*
X125151761Y-104805016D01*
X125207552Y-104860807D01*
X125235329Y-104915324D01*
X125225758Y-104975756D01*
X125182493Y-105019021D01*
X125152352Y-105028698D01*
X125011246Y-105050039D01*
X125001574Y-105052522D01*
X124825099Y-105117452D01*
X124816136Y-105121823D01*
X124656322Y-105220912D01*
X124648414Y-105227002D01*
X124511788Y-105356203D01*
X124505268Y-105363757D01*
X124397411Y-105517792D01*
X124392544Y-105526499D01*
X124342139Y-105642980D01*
X124301676Y-105688876D01*
X124241964Y-105702224D01*
X124185811Y-105677924D01*
X124156811Y-105633268D01*
X124152252Y-105618720D01*
X124148321Y-105609550D01*
X124057160Y-105445092D01*
X124051461Y-105436892D01*
X123929093Y-105294122D01*
X123921860Y-105287235D01*
X123773281Y-105171984D01*
X123764827Y-105166702D01*
X123596100Y-105083678D01*
X123586747Y-105080199D01*
X123440174Y-105042020D01*
X123427775Y-105042756D01*
X123425000Y-105052245D01*
X123073755Y-105052245D01*
X123070878Y-105043391D01*
X123069839Y-105042636D01*
X123063589Y-105042122D01*
X123011238Y-105050040D01*
X123001581Y-105052519D01*
X122825099Y-105117452D01*
X122816136Y-105121823D01*
X122656322Y-105220912D01*
X122648414Y-105227002D01*
X122511788Y-105356203D01*
X122505268Y-105363757D01*
X122397411Y-105517792D01*
X122392546Y-105526496D01*
X122317862Y-105699082D01*
X122314849Y-105708582D01*
X122293734Y-105809651D01*
X120350000Y-105809651D01*
X120350000Y-100532718D01*
X121054500Y-100532718D01*
X121054500Y-101134913D01*
X121068613Y-101233457D01*
X121071533Y-101239879D01*
X121114254Y-101333839D01*
X121124414Y-101356186D01*
X121212418Y-101458319D01*
X121325551Y-101531648D01*
X121332309Y-101533669D01*
X121332311Y-101533670D01*
X121377817Y-101547279D01*
X121454717Y-101570277D01*
X121457718Y-101570500D01*
X121505500Y-101570500D01*
X121563691Y-101589407D01*
X121599655Y-101638907D01*
X121604500Y-101669500D01*
X121604500Y-101936913D01*
X121604477Y-101937207D01*
X121604431Y-101937348D01*
X121604431Y-102062652D01*
X121606838Y-102070059D01*
X121611764Y-102085221D01*
X121615390Y-102100326D01*
X121619102Y-102123761D01*
X121622639Y-102130702D01*
X121622640Y-102130706D01*
X121629874Y-102144903D01*
X121635819Y-102159255D01*
X121643152Y-102181823D01*
X121657103Y-102201025D01*
X121665216Y-102214265D01*
X121675989Y-102235408D01*
X121764592Y-102324011D01*
X121764723Y-102324078D01*
X121764947Y-102324269D01*
X121975731Y-102535053D01*
X121975922Y-102535277D01*
X121975989Y-102535408D01*
X122064592Y-102624011D01*
X122071531Y-102627547D01*
X122071533Y-102627548D01*
X122085735Y-102634784D01*
X122098975Y-102642897D01*
X122118177Y-102656848D01*
X122140744Y-102664180D01*
X122155097Y-102670126D01*
X122169294Y-102677360D01*
X122169298Y-102677361D01*
X122176239Y-102680898D01*
X122183933Y-102682117D01*
X122183934Y-102682117D01*
X122199674Y-102684610D01*
X122214779Y-102688236D01*
X122237348Y-102695569D01*
X122362652Y-102695569D01*
X122362793Y-102695523D01*
X122363087Y-102695500D01*
X122377262Y-102695500D01*
X122435453Y-102714407D01*
X122449430Y-102726730D01*
X122497028Y-102777417D01*
X122497031Y-102777419D01*
X122501291Y-102781956D01*
X122633675Y-102865969D01*
X122782793Y-102914421D01*
X122939275Y-102924266D01*
X123093290Y-102894886D01*
X123164225Y-102861506D01*
X123229525Y-102830779D01*
X123229527Y-102830778D01*
X123235160Y-102828127D01*
X123296458Y-102777417D01*
X123351173Y-102732153D01*
X123351175Y-102732150D01*
X123355970Y-102728184D01*
X123359627Y-102723150D01*
X123359634Y-102723143D01*
X123395408Y-102673904D01*
X123444908Y-102637940D01*
X123506093Y-102637941D01*
X123555593Y-102673905D01*
X123574500Y-102732095D01*
X123574500Y-103330040D01*
X123589745Y-103421631D01*
X123648297Y-103530147D01*
X123738842Y-103613846D01*
X123746324Y-103617154D01*
X123746326Y-103617155D01*
X123845027Y-103660790D01*
X123845029Y-103660791D01*
X123851617Y-103663703D01*
X123905421Y-103670500D01*
X124275040Y-103670500D01*
X124366631Y-103655255D01*
X124475147Y-103596703D01*
X124558846Y-103506158D01*
X124608703Y-103393383D01*
X124615500Y-103339579D01*
X124615500Y-101619960D01*
X124600255Y-101528369D01*
X124541703Y-101419853D01*
X124533838Y-101412582D01*
X124527298Y-101406537D01*
X124497402Y-101353152D01*
X124495500Y-101333839D01*
X124495500Y-101163087D01*
X124495523Y-101162793D01*
X124495569Y-101162652D01*
X124495569Y-101037348D01*
X124493163Y-101029941D01*
X124493162Y-101029938D01*
X124488237Y-101014782D01*
X124484610Y-100999675D01*
X124482117Y-100983936D01*
X124480898Y-100976239D01*
X124477360Y-100969296D01*
X124477359Y-100969292D01*
X124470127Y-100955098D01*
X124464181Y-100940745D01*
X124459256Y-100925588D01*
X124456848Y-100918176D01*
X124442901Y-100898980D01*
X124434784Y-100885733D01*
X124427550Y-100871536D01*
X124427547Y-100871532D01*
X124424011Y-100864592D01*
X124335408Y-100775989D01*
X124335276Y-100775921D01*
X124335051Y-100775729D01*
X124174269Y-100614947D01*
X124174078Y-100614723D01*
X124174011Y-100614592D01*
X124085408Y-100525989D01*
X124078469Y-100522453D01*
X124078467Y-100522452D01*
X124064265Y-100515216D01*
X124051025Y-100507103D01*
X124031823Y-100493152D01*
X124009255Y-100485819D01*
X123994903Y-100479874D01*
X123980706Y-100472640D01*
X123980702Y-100472639D01*
X123973761Y-100469102D01*
X123966067Y-100467883D01*
X123966066Y-100467883D01*
X123950326Y-100465390D01*
X123935221Y-100461764D01*
X123926166Y-100458822D01*
X123912652Y-100454431D01*
X123787348Y-100454431D01*
X123787207Y-100454477D01*
X123786913Y-100454500D01*
X122989651Y-100454500D01*
X122931460Y-100435593D01*
X122899529Y-100396475D01*
X122881974Y-100357864D01*
X122875586Y-100343814D01*
X122868733Y-100335860D01*
X122792187Y-100247025D01*
X122792186Y-100247024D01*
X122787582Y-100241681D01*
X122674449Y-100168352D01*
X122667691Y-100166331D01*
X122667689Y-100166330D01*
X122613409Y-100150097D01*
X122545283Y-100129723D01*
X122542282Y-100129500D01*
X121490087Y-100129500D01*
X121486596Y-100130000D01*
X121486595Y-100130000D01*
X121457239Y-100134204D01*
X121391543Y-100143613D01*
X121385120Y-100146533D01*
X121385121Y-100146533D01*
X121278736Y-100194903D01*
X121268814Y-100199414D01*
X121166681Y-100287418D01*
X121093352Y-100400551D01*
X121054723Y-100529717D01*
X121054500Y-100532718D01*
X120350000Y-100532718D01*
X120350000Y-99133243D01*
X120975000Y-99133243D01*
X120975000Y-99233126D01*
X120975458Y-99239845D01*
X120989529Y-99342568D01*
X120993123Y-99355441D01*
X121047594Y-99481315D01*
X121054519Y-99492748D01*
X121140828Y-99599332D01*
X121150579Y-99608489D01*
X121262370Y-99687934D01*
X121274220Y-99694129D01*
X121403992Y-99740850D01*
X121415545Y-99743496D01*
X121474864Y-99749730D01*
X121480009Y-99750000D01*
X121809320Y-99750000D01*
X121822005Y-99745878D01*
X121825000Y-99741757D01*
X121825000Y-99140680D01*
X121822583Y-99133243D01*
X122175000Y-99133243D01*
X122175000Y-99734320D01*
X122179122Y-99747005D01*
X122183243Y-99750000D01*
X122508126Y-99750000D01*
X122514845Y-99749542D01*
X122617568Y-99735471D01*
X122630441Y-99731877D01*
X122756315Y-99677406D01*
X122767748Y-99670481D01*
X122874332Y-99584172D01*
X122883489Y-99574421D01*
X122962934Y-99462630D01*
X122969129Y-99450780D01*
X123015850Y-99321008D01*
X123018496Y-99309455D01*
X123024730Y-99250136D01*
X123025000Y-99244991D01*
X123025000Y-99140680D01*
X123020878Y-99127995D01*
X123016757Y-99125000D01*
X122190680Y-99125000D01*
X122177995Y-99129122D01*
X122175000Y-99133243D01*
X121822583Y-99133243D01*
X121820878Y-99127995D01*
X121816757Y-99125000D01*
X120990680Y-99125000D01*
X120977995Y-99129122D01*
X120975000Y-99133243D01*
X120350000Y-99133243D01*
X120350000Y-98655009D01*
X120975000Y-98655009D01*
X120975000Y-98759320D01*
X120979122Y-98772005D01*
X120983243Y-98775000D01*
X121809320Y-98775000D01*
X121822005Y-98770878D01*
X121825000Y-98766757D01*
X121825000Y-98165680D01*
X121822583Y-98158243D01*
X122175000Y-98158243D01*
X122175000Y-98759320D01*
X122179122Y-98772005D01*
X122183243Y-98775000D01*
X123009320Y-98775000D01*
X123022005Y-98770878D01*
X123025000Y-98766757D01*
X123025000Y-98666874D01*
X123024542Y-98660155D01*
X123010471Y-98557432D01*
X123006877Y-98544559D01*
X122952406Y-98418685D01*
X122945481Y-98407252D01*
X122859172Y-98300668D01*
X122849421Y-98291511D01*
X122737630Y-98212066D01*
X122725780Y-98205871D01*
X122596008Y-98159150D01*
X122584455Y-98156504D01*
X122525136Y-98150270D01*
X122519991Y-98150000D01*
X122190680Y-98150000D01*
X122177995Y-98154122D01*
X122175000Y-98158243D01*
X121822583Y-98158243D01*
X121820878Y-98152995D01*
X121816757Y-98150000D01*
X121491874Y-98150000D01*
X121485155Y-98150458D01*
X121382432Y-98164529D01*
X121369559Y-98168123D01*
X121243685Y-98222594D01*
X121232252Y-98229519D01*
X121125668Y-98315828D01*
X121116511Y-98325579D01*
X121037066Y-98437370D01*
X121030871Y-98449220D01*
X120984150Y-98578992D01*
X120981504Y-98590545D01*
X120975270Y-98649864D01*
X120975000Y-98655009D01*
X120350000Y-98655009D01*
X120350000Y-97708243D01*
X123495000Y-97708243D01*
X123495000Y-98379558D01*
X123495550Y-98386914D01*
X123509014Y-98476471D01*
X123513317Y-98490459D01*
X123565476Y-98599079D01*
X123573698Y-98611179D01*
X123655492Y-98699662D01*
X123666915Y-98708814D01*
X123771101Y-98769330D01*
X123784717Y-98774720D01*
X123888280Y-98798725D01*
X123899429Y-98800000D01*
X123904320Y-98800000D01*
X123917005Y-98795878D01*
X123920000Y-98791757D01*
X123920000Y-97715680D01*
X123915878Y-97702995D01*
X123911757Y-97700000D01*
X123510680Y-97700000D01*
X123497995Y-97704122D01*
X123495000Y-97708243D01*
X120350000Y-97708243D01*
X120350000Y-96654429D01*
X123495000Y-96654429D01*
X123495000Y-97334320D01*
X123499122Y-97347005D01*
X123503243Y-97350000D01*
X123904320Y-97350000D01*
X123917005Y-97345878D01*
X123920000Y-97341757D01*
X123920000Y-96265680D01*
X123915878Y-96252995D01*
X123912100Y-96250250D01*
X123908086Y-96250550D01*
X123818529Y-96264014D01*
X123804541Y-96268317D01*
X123695921Y-96320476D01*
X123683821Y-96328698D01*
X123595338Y-96410492D01*
X123586186Y-96421915D01*
X123525670Y-96526101D01*
X123520280Y-96539717D01*
X123496275Y-96643280D01*
X123495000Y-96654429D01*
X120350000Y-96654429D01*
X120350000Y-94433243D01*
X122270000Y-94433243D01*
X122270000Y-94923870D01*
X122270053Y-94926137D01*
X122271037Y-94947423D01*
X122272867Y-94958646D01*
X122299465Y-95052130D01*
X122307502Y-95068268D01*
X122363995Y-95143078D01*
X122377321Y-95155226D01*
X122457021Y-95204574D01*
X122473842Y-95211090D01*
X122570493Y-95229158D01*
X122579583Y-95230000D01*
X123059320Y-95230000D01*
X123072005Y-95225878D01*
X123075000Y-95221757D01*
X123075000Y-94440680D01*
X123070878Y-94427995D01*
X123066757Y-94425000D01*
X122285680Y-94425000D01*
X122272995Y-94429122D01*
X122270000Y-94433243D01*
X120350000Y-94433243D01*
X120350000Y-93579583D01*
X122270000Y-93579583D01*
X122270000Y-94059320D01*
X122274122Y-94072005D01*
X122278243Y-94075000D01*
X123326000Y-94075000D01*
X123384191Y-94093907D01*
X123420155Y-94143407D01*
X123425000Y-94174000D01*
X123425000Y-95214320D01*
X123429122Y-95227005D01*
X123433243Y-95230000D01*
X123923870Y-95230000D01*
X123926137Y-95229947D01*
X123947423Y-95228963D01*
X123958646Y-95227133D01*
X124052130Y-95200535D01*
X124068268Y-95192498D01*
X124143078Y-95136005D01*
X124155226Y-95122679D01*
X124204574Y-95042979D01*
X124211090Y-95026158D01*
X124229158Y-94929507D01*
X124230000Y-94920417D01*
X124230000Y-94633942D01*
X124248907Y-94575751D01*
X124298407Y-94539787D01*
X124359593Y-94539787D01*
X124409093Y-94575751D01*
X124423155Y-94603349D01*
X124427352Y-94616266D01*
X124429943Y-94620754D01*
X124429944Y-94620756D01*
X124518887Y-94774810D01*
X124521480Y-94779301D01*
X124524952Y-94783157D01*
X124643978Y-94915349D01*
X124643982Y-94915352D01*
X124647448Y-94919202D01*
X124671071Y-94936365D01*
X124763691Y-95003658D01*
X124799655Y-95053159D01*
X124804500Y-95083751D01*
X124804500Y-95536913D01*
X124804477Y-95537207D01*
X124804431Y-95537348D01*
X124804431Y-95662652D01*
X124806838Y-95670059D01*
X124811764Y-95685221D01*
X124815390Y-95700326D01*
X124819102Y-95723761D01*
X124822639Y-95730702D01*
X124822640Y-95730706D01*
X124829874Y-95744903D01*
X124835819Y-95759255D01*
X124843152Y-95781823D01*
X124857103Y-95801025D01*
X124865216Y-95814265D01*
X124872259Y-95828087D01*
X124875989Y-95835408D01*
X124940504Y-95899923D01*
X124968281Y-95954440D01*
X124969500Y-95969927D01*
X124969500Y-96381158D01*
X124950593Y-96439349D01*
X124943198Y-96448359D01*
X124901154Y-96493842D01*
X124897846Y-96501324D01*
X124897845Y-96501326D01*
X124883438Y-96533915D01*
X124871725Y-96560411D01*
X124864080Y-96577703D01*
X124823259Y-96623279D01*
X124763444Y-96636157D01*
X124707483Y-96611418D01*
X124678911Y-96566784D01*
X124676683Y-96559541D01*
X124624524Y-96450921D01*
X124616302Y-96438821D01*
X124534508Y-96350338D01*
X124523085Y-96341186D01*
X124418899Y-96280670D01*
X124405283Y-96275280D01*
X124301720Y-96251275D01*
X124290571Y-96250000D01*
X124285680Y-96250000D01*
X124272995Y-96254122D01*
X124270000Y-96258243D01*
X124270000Y-98784320D01*
X124274122Y-98797005D01*
X124277900Y-98799750D01*
X124281914Y-98799450D01*
X124371471Y-98785986D01*
X124385459Y-98781683D01*
X124494079Y-98729524D01*
X124506179Y-98721302D01*
X124594662Y-98639508D01*
X124603814Y-98628085D01*
X124664330Y-98523899D01*
X124669719Y-98510285D01*
X124674261Y-98490692D01*
X124705820Y-98438274D01*
X124762163Y-98414417D01*
X124821768Y-98428234D01*
X124859527Y-98471748D01*
X124859745Y-98471631D01*
X124918297Y-98580147D01*
X125008842Y-98663846D01*
X125016324Y-98667154D01*
X125016326Y-98667155D01*
X125115027Y-98710790D01*
X125115029Y-98710791D01*
X125121617Y-98713703D01*
X125175421Y-98720500D01*
X125545040Y-98720500D01*
X125636631Y-98705255D01*
X125745147Y-98646703D01*
X125828846Y-98556158D01*
X125840966Y-98528744D01*
X125875790Y-98449973D01*
X125875791Y-98449971D01*
X125878703Y-98443383D01*
X125885500Y-98389579D01*
X125885500Y-96669960D01*
X125883912Y-96660421D01*
X126114500Y-96660421D01*
X126114500Y-98380040D01*
X126129745Y-98471631D01*
X126188297Y-98580147D01*
X126278842Y-98663846D01*
X126286324Y-98667154D01*
X126286326Y-98667155D01*
X126385027Y-98710790D01*
X126385029Y-98710791D01*
X126391617Y-98713703D01*
X126445421Y-98720500D01*
X126815040Y-98720500D01*
X126906631Y-98705255D01*
X127015147Y-98646703D01*
X127098846Y-98556158D01*
X127110966Y-98528744D01*
X127145790Y-98449973D01*
X127145791Y-98449971D01*
X127148703Y-98443383D01*
X127155500Y-98389579D01*
X127155500Y-96669960D01*
X127142235Y-96590264D01*
X127141599Y-96586441D01*
X127141598Y-96586438D01*
X127140255Y-96578369D01*
X127119433Y-96539778D01*
X127108441Y-96479590D01*
X127136556Y-96422766D01*
X127434826Y-96124496D01*
X127489343Y-96096719D01*
X127504830Y-96095500D01*
X127706170Y-96095500D01*
X127764361Y-96114407D01*
X127800325Y-96163907D01*
X127800325Y-96225093D01*
X127776174Y-96264504D01*
X127730867Y-96309811D01*
X127677118Y-96337463D01*
X127654751Y-96341186D01*
X127633369Y-96344745D01*
X127524853Y-96403297D01*
X127441154Y-96493842D01*
X127437846Y-96501324D01*
X127437845Y-96501326D01*
X127398527Y-96590264D01*
X127391297Y-96606617D01*
X127384500Y-96660421D01*
X127384500Y-98380040D01*
X127399745Y-98471631D01*
X127458297Y-98580147D01*
X127548842Y-98663846D01*
X127556324Y-98667154D01*
X127556326Y-98667155D01*
X127655027Y-98710790D01*
X127655029Y-98710791D01*
X127661617Y-98713703D01*
X127715421Y-98720500D01*
X128085040Y-98720500D01*
X128176631Y-98705255D01*
X128285147Y-98646703D01*
X128368846Y-98556158D01*
X128380966Y-98528744D01*
X128415790Y-98449973D01*
X128415791Y-98449971D01*
X128418703Y-98443383D01*
X128425500Y-98389579D01*
X128425500Y-96774830D01*
X128444407Y-96716639D01*
X128454496Y-96704826D01*
X129034825Y-96124496D01*
X129089342Y-96096719D01*
X129104829Y-96095500D01*
X131270220Y-96095500D01*
X131328411Y-96114407D01*
X131347805Y-96133005D01*
X131426350Y-96232105D01*
X131430037Y-96235243D01*
X131430039Y-96235245D01*
X131482367Y-96279779D01*
X131586198Y-96368146D01*
X131590421Y-96370506D01*
X131590425Y-96370509D01*
X131683929Y-96422766D01*
X131769425Y-96470548D01*
X131774023Y-96472042D01*
X131964447Y-96533915D01*
X131964449Y-96533916D01*
X131969052Y-96535411D01*
X132177476Y-96560264D01*
X132182298Y-96559893D01*
X132182301Y-96559893D01*
X132250860Y-96554618D01*
X132386759Y-96544161D01*
X132588927Y-96487714D01*
X132593240Y-96485535D01*
X132593246Y-96485533D01*
X132684674Y-96439349D01*
X132776282Y-96393075D01*
X132833166Y-96348632D01*
X132937875Y-96266825D01*
X132937878Y-96266822D01*
X132941686Y-96263847D01*
X132947506Y-96257105D01*
X133075675Y-96108619D01*
X133075677Y-96108617D01*
X133078839Y-96104953D01*
X133149198Y-95981099D01*
X133180129Y-95926651D01*
X133180130Y-95926648D01*
X133182518Y-95922445D01*
X133186806Y-95909557D01*
X133247246Y-95727866D01*
X133247246Y-95727864D01*
X133248773Y-95723275D01*
X133251190Y-95704148D01*
X133274734Y-95517778D01*
X133274734Y-95517775D01*
X133275081Y-95515030D01*
X133275190Y-95507261D01*
X133275293Y-95499804D01*
X133275500Y-95485000D01*
X133262040Y-95347730D01*
X133255489Y-95280911D01*
X133255488Y-95280907D01*
X133255017Y-95276101D01*
X133194349Y-95075159D01*
X133095807Y-94889827D01*
X133036459Y-94817059D01*
X133014332Y-94760016D01*
X133029962Y-94700860D01*
X133077377Y-94662189D01*
X133113178Y-94655489D01*
X134307449Y-94655489D01*
X134365640Y-94674396D01*
X134401604Y-94723896D01*
X134401604Y-94785082D01*
X134383287Y-94818125D01*
X134319533Y-94894104D01*
X134312590Y-94902378D01*
X134310254Y-94906626D01*
X134310254Y-94906627D01*
X134287826Y-94947423D01*
X134211470Y-95086315D01*
X134210007Y-95090928D01*
X134210005Y-95090932D01*
X134155932Y-95261391D01*
X134148002Y-95286391D01*
X134147462Y-95291203D01*
X134147462Y-95291204D01*
X134127960Y-95465077D01*
X134124605Y-95494984D01*
X134129039Y-95547782D01*
X134141202Y-95692629D01*
X134142169Y-95704148D01*
X134143502Y-95708796D01*
X134143502Y-95708797D01*
X134198566Y-95900829D01*
X134200025Y-95905918D01*
X134202240Y-95910227D01*
X134202240Y-95910228D01*
X134210680Y-95926651D01*
X134295971Y-96092607D01*
X134426350Y-96257105D01*
X134430037Y-96260243D01*
X134430039Y-96260245D01*
X134525145Y-96341186D01*
X134586198Y-96393146D01*
X134590421Y-96395506D01*
X134590425Y-96395509D01*
X134689574Y-96450921D01*
X134769425Y-96495548D01*
X134774023Y-96497042D01*
X134964447Y-96558915D01*
X134964449Y-96558916D01*
X134969052Y-96560411D01*
X135177476Y-96585264D01*
X135182298Y-96584893D01*
X135182301Y-96584893D01*
X135250860Y-96579618D01*
X135386759Y-96569161D01*
X135588927Y-96512714D01*
X135593240Y-96510535D01*
X135593246Y-96510533D01*
X135684773Y-96464299D01*
X135776282Y-96418075D01*
X135871860Y-96343401D01*
X135937875Y-96291825D01*
X135937878Y-96291822D01*
X135941686Y-96288847D01*
X135962059Y-96265245D01*
X136075675Y-96133619D01*
X136075677Y-96133617D01*
X136078839Y-96129953D01*
X136149198Y-96006099D01*
X136180129Y-95951651D01*
X136180130Y-95951648D01*
X136182518Y-95947445D01*
X136185882Y-95937334D01*
X136247246Y-95752866D01*
X136247246Y-95752864D01*
X136248773Y-95748275D01*
X136254831Y-95700326D01*
X136272852Y-95557675D01*
X136275081Y-95540030D01*
X136275122Y-95537136D01*
X136275391Y-95517778D01*
X136275500Y-95510000D01*
X136261696Y-95369214D01*
X136274835Y-95309456D01*
X136320590Y-95268833D01*
X136381483Y-95262862D01*
X136430228Y-95289549D01*
X136890728Y-95750049D01*
X136890921Y-95750275D01*
X136890989Y-95750408D01*
X136979592Y-95839011D01*
X136986532Y-95842547D01*
X137000740Y-95849787D01*
X137013982Y-95857902D01*
X137033177Y-95871848D01*
X137055743Y-95879180D01*
X137070096Y-95885126D01*
X137084293Y-95892360D01*
X137084299Y-95892362D01*
X137091239Y-95895898D01*
X137098933Y-95897117D01*
X137098934Y-95897117D01*
X137114675Y-95899610D01*
X137129780Y-95903236D01*
X137152349Y-95910569D01*
X137155741Y-95910569D01*
X137208272Y-95937334D01*
X137226322Y-95962086D01*
X137295971Y-96097607D01*
X137426350Y-96262105D01*
X137430037Y-96265243D01*
X137430039Y-96265245D01*
X137519270Y-96341186D01*
X137586198Y-96398146D01*
X137590421Y-96400506D01*
X137590425Y-96400509D01*
X137676176Y-96448433D01*
X137769425Y-96500548D01*
X137774023Y-96502042D01*
X137964447Y-96563915D01*
X137964449Y-96563916D01*
X137969052Y-96565411D01*
X138177476Y-96590264D01*
X138182298Y-96589893D01*
X138182301Y-96589893D01*
X138250860Y-96584618D01*
X138386759Y-96574161D01*
X138588927Y-96517714D01*
X138593240Y-96515535D01*
X138593246Y-96515533D01*
X138686975Y-96468187D01*
X138776282Y-96423075D01*
X138881095Y-96341186D01*
X138937875Y-96296825D01*
X138937878Y-96296822D01*
X138941686Y-96293847D01*
X138965999Y-96265680D01*
X139075675Y-96138619D01*
X139075677Y-96138617D01*
X139078839Y-96134953D01*
X139182518Y-95952445D01*
X139184182Y-95947445D01*
X139247246Y-95757866D01*
X139247246Y-95757864D01*
X139248773Y-95753275D01*
X139250012Y-95743472D01*
X139265598Y-95620097D01*
X139275081Y-95545030D01*
X139275190Y-95537256D01*
X139275461Y-95517778D01*
X139275500Y-95515000D01*
X139261523Y-95372452D01*
X139255489Y-95310911D01*
X139255488Y-95310907D01*
X139255017Y-95306101D01*
X139253508Y-95301101D01*
X139200462Y-95125407D01*
X139194349Y-95105159D01*
X139095807Y-94919827D01*
X138963143Y-94757166D01*
X138944309Y-94741585D01*
X138805139Y-94626453D01*
X138805137Y-94626452D01*
X138801412Y-94623370D01*
X138616773Y-94523536D01*
X138553387Y-94503915D01*
X138420880Y-94462897D01*
X138420876Y-94462896D01*
X138416259Y-94461467D01*
X138411451Y-94460962D01*
X138411448Y-94460961D01*
X138212324Y-94440032D01*
X138212322Y-94440032D01*
X138207508Y-94439526D01*
X138139088Y-94445753D01*
X138003291Y-94458111D01*
X138003288Y-94458112D01*
X137998471Y-94458550D01*
X137993829Y-94459916D01*
X137993825Y-94459917D01*
X137801758Y-94516446D01*
X137801755Y-94516447D01*
X137797111Y-94517814D01*
X137792817Y-94520059D01*
X137615393Y-94612813D01*
X137615389Y-94612816D01*
X137611096Y-94615060D01*
X137607320Y-94618096D01*
X137607317Y-94618098D01*
X137451284Y-94743552D01*
X137447512Y-94746585D01*
X137444403Y-94750290D01*
X137444400Y-94750293D01*
X137315473Y-94903942D01*
X137263585Y-94936365D01*
X137202549Y-94932097D01*
X137169631Y-94910310D01*
X136284258Y-94024936D01*
X136284067Y-94024712D01*
X136284000Y-94024581D01*
X136195397Y-93935978D01*
X136188458Y-93932442D01*
X136188456Y-93932441D01*
X136174254Y-93925205D01*
X136161014Y-93917092D01*
X136141812Y-93903141D01*
X136119244Y-93895808D01*
X136104891Y-93889863D01*
X136093096Y-93883853D01*
X136049832Y-93840588D01*
X136040261Y-93780156D01*
X136061927Y-93732340D01*
X136148959Y-93627695D01*
X136154085Y-93620236D01*
X136252925Y-93443744D01*
X136256605Y-93435480D01*
X136321627Y-93243931D01*
X136323739Y-93235132D01*
X136334558Y-93160518D01*
X136332299Y-93147372D01*
X136331263Y-93146363D01*
X136325417Y-93145000D01*
X134074528Y-93145000D01*
X134061843Y-93149122D01*
X134059831Y-93151890D01*
X134060336Y-93155077D01*
X134110131Y-93351145D01*
X134113151Y-93359673D01*
X134197841Y-93543378D01*
X134202359Y-93551204D01*
X134313420Y-93708352D01*
X134331564Y-93766785D01*
X134311896Y-93824723D01*
X134261930Y-93860036D01*
X134232572Y-93864489D01*
X133142329Y-93864489D01*
X133084138Y-93845582D01*
X133048174Y-93796082D01*
X133048174Y-93734896D01*
X133066214Y-93702184D01*
X133148963Y-93602689D01*
X133154085Y-93595236D01*
X133252925Y-93418744D01*
X133256605Y-93410480D01*
X133321627Y-93218931D01*
X133323739Y-93210132D01*
X133334558Y-93135518D01*
X133332299Y-93122372D01*
X133331263Y-93121363D01*
X133325417Y-93120000D01*
X131074528Y-93120000D01*
X131061843Y-93124122D01*
X131059831Y-93126890D01*
X131060336Y-93130077D01*
X131110131Y-93326145D01*
X131113151Y-93334673D01*
X131197841Y-93518378D01*
X131202359Y-93526204D01*
X131319115Y-93691410D01*
X131327471Y-93701194D01*
X131350886Y-93757722D01*
X131336602Y-93817216D01*
X131290077Y-93856953D01*
X131252191Y-93864489D01*
X129603098Y-93864489D01*
X129602804Y-93864466D01*
X129602663Y-93864420D01*
X129477359Y-93864420D01*
X129455765Y-93871436D01*
X129454790Y-93871753D01*
X129439685Y-93875379D01*
X129423945Y-93877872D01*
X129423944Y-93877872D01*
X129416250Y-93879091D01*
X129409309Y-93882628D01*
X129409305Y-93882629D01*
X129395108Y-93889863D01*
X129380756Y-93895808D01*
X129358188Y-93903141D01*
X129338986Y-93917092D01*
X129325746Y-93925205D01*
X129311544Y-93932441D01*
X129311542Y-93932442D01*
X129304603Y-93935978D01*
X129216000Y-94024581D01*
X129215933Y-94024712D01*
X129215742Y-94024936D01*
X127965174Y-95275504D01*
X127910657Y-95303281D01*
X127895170Y-95304500D01*
X127538329Y-95304500D01*
X127480138Y-95285593D01*
X127444174Y-95236093D01*
X127444174Y-95174907D01*
X127480138Y-95125407D01*
X127517744Y-95108663D01*
X127528270Y-95106426D01*
X127533004Y-95104318D01*
X127533008Y-95104317D01*
X127599207Y-95074843D01*
X127700250Y-95029856D01*
X127852552Y-94919202D01*
X127856018Y-94915352D01*
X127856022Y-94915349D01*
X127975048Y-94783157D01*
X127978520Y-94779301D01*
X127981113Y-94774810D01*
X128070056Y-94620756D01*
X128070057Y-94620754D01*
X128072648Y-94616266D01*
X128085812Y-94575751D01*
X128129220Y-94442156D01*
X128129221Y-94442152D01*
X128130822Y-94437224D01*
X128150500Y-94250000D01*
X128130822Y-94062776D01*
X128126834Y-94050500D01*
X128074250Y-93888664D01*
X128074249Y-93888663D01*
X128072648Y-93883734D01*
X128069968Y-93879091D01*
X127981113Y-93725190D01*
X127981112Y-93725189D01*
X127978520Y-93720699D01*
X127952148Y-93691410D01*
X127856022Y-93584651D01*
X127856018Y-93584648D01*
X127852552Y-93580798D01*
X127700250Y-93470144D01*
X127566242Y-93410480D01*
X127533008Y-93395683D01*
X127533004Y-93395682D01*
X127528270Y-93393574D01*
X127344128Y-93354433D01*
X127155872Y-93354433D01*
X126971730Y-93393574D01*
X126966996Y-93395682D01*
X126966992Y-93395683D01*
X126933758Y-93410480D01*
X126799750Y-93470144D01*
X126647448Y-93580798D01*
X126643982Y-93584648D01*
X126643978Y-93584651D01*
X126547852Y-93691410D01*
X126521480Y-93720699D01*
X126518888Y-93725189D01*
X126518887Y-93725190D01*
X126430033Y-93879091D01*
X126427352Y-93883734D01*
X126425751Y-93888663D01*
X126425750Y-93888664D01*
X126373167Y-94050500D01*
X126369178Y-94062776D01*
X126349500Y-94250000D01*
X126369178Y-94437224D01*
X126370779Y-94442152D01*
X126370780Y-94442156D01*
X126414188Y-94575751D01*
X126427352Y-94616266D01*
X126429943Y-94620754D01*
X126429944Y-94620756D01*
X126518887Y-94774810D01*
X126521480Y-94779301D01*
X126524952Y-94783157D01*
X126643978Y-94915349D01*
X126643982Y-94915352D01*
X126647448Y-94919202D01*
X126799750Y-95029856D01*
X126900793Y-95074843D01*
X126966992Y-95104317D01*
X126966996Y-95104318D01*
X126971730Y-95106426D01*
X126976800Y-95107504D01*
X126976801Y-95107504D01*
X126982254Y-95108663D01*
X127137112Y-95141579D01*
X127190099Y-95172172D01*
X127214986Y-95228068D01*
X127202264Y-95287916D01*
X127161476Y-95326624D01*
X127155100Y-95329873D01*
X127140745Y-95335819D01*
X127118177Y-95343152D01*
X127098975Y-95357103D01*
X127085735Y-95365216D01*
X127071533Y-95372452D01*
X127071531Y-95372453D01*
X127064592Y-95375989D01*
X126975989Y-95464592D01*
X126975922Y-95464723D01*
X126975731Y-95464947D01*
X126399947Y-96040731D01*
X126399723Y-96040922D01*
X126399592Y-96040989D01*
X126310989Y-96129592D01*
X126307453Y-96136531D01*
X126307452Y-96136533D01*
X126300216Y-96150735D01*
X126292103Y-96163975D01*
X126278152Y-96183177D01*
X126275745Y-96190586D01*
X126270820Y-96205744D01*
X126264874Y-96220097D01*
X126257640Y-96234294D01*
X126257639Y-96234298D01*
X126254102Y-96241239D01*
X126252883Y-96248933D01*
X126252883Y-96248934D01*
X126250390Y-96264674D01*
X126246764Y-96279779D01*
X126239431Y-96302348D01*
X126239431Y-96381232D01*
X126220524Y-96439423D01*
X126213129Y-96448433D01*
X126198463Y-96464299D01*
X126171154Y-96493842D01*
X126167846Y-96501324D01*
X126167845Y-96501326D01*
X126128527Y-96590264D01*
X126121297Y-96606617D01*
X126114500Y-96660421D01*
X125883912Y-96660421D01*
X125870255Y-96578369D01*
X125835532Y-96514015D01*
X125815589Y-96477055D01*
X125811703Y-96469853D01*
X125792298Y-96451915D01*
X125762402Y-96398530D01*
X125760500Y-96379217D01*
X125760500Y-95828087D01*
X125760523Y-95827793D01*
X125760569Y-95827652D01*
X125760569Y-95702348D01*
X125753236Y-95679779D01*
X125749610Y-95664674D01*
X125747117Y-95648934D01*
X125747117Y-95648933D01*
X125745898Y-95641239D01*
X125742361Y-95634298D01*
X125742360Y-95634294D01*
X125735126Y-95620097D01*
X125729180Y-95605744D01*
X125724255Y-95590586D01*
X125721848Y-95583177D01*
X125707897Y-95563975D01*
X125699784Y-95550735D01*
X125692548Y-95536533D01*
X125692547Y-95536531D01*
X125689011Y-95529592D01*
X125624496Y-95465077D01*
X125596719Y-95410560D01*
X125595500Y-95395073D01*
X125595500Y-95140784D01*
X125614407Y-95082593D01*
X125654233Y-95050344D01*
X125695500Y-95031971D01*
X125695507Y-95031968D01*
X125695509Y-95031967D01*
X125700250Y-95029856D01*
X125736309Y-95003658D01*
X125828929Y-94936365D01*
X125852552Y-94919202D01*
X125856018Y-94915352D01*
X125856022Y-94915349D01*
X125975048Y-94783157D01*
X125978520Y-94779301D01*
X125981113Y-94774810D01*
X126070056Y-94620756D01*
X126070057Y-94620754D01*
X126072648Y-94616266D01*
X126085812Y-94575751D01*
X126129220Y-94442156D01*
X126129221Y-94442152D01*
X126130822Y-94437224D01*
X126150500Y-94250000D01*
X126130822Y-94062776D01*
X126126834Y-94050500D01*
X126074250Y-93888664D01*
X126074249Y-93888663D01*
X126072648Y-93883734D01*
X126069968Y-93879091D01*
X125981113Y-93725190D01*
X125981112Y-93725189D01*
X125978520Y-93720699D01*
X125952148Y-93691410D01*
X125856022Y-93584651D01*
X125856018Y-93584648D01*
X125852552Y-93580798D01*
X125700250Y-93470144D01*
X125566242Y-93410480D01*
X125533008Y-93395683D01*
X125533004Y-93395682D01*
X125528270Y-93393574D01*
X125344128Y-93354433D01*
X125155872Y-93354433D01*
X124971730Y-93393574D01*
X124966996Y-93395682D01*
X124966992Y-93395683D01*
X124933758Y-93410480D01*
X124799750Y-93470144D01*
X124647448Y-93580798D01*
X124643982Y-93584648D01*
X124643978Y-93584651D01*
X124547852Y-93691410D01*
X124521480Y-93720699D01*
X124518888Y-93725189D01*
X124518887Y-93725190D01*
X124430033Y-93879091D01*
X124427352Y-93883734D01*
X124425751Y-93888663D01*
X124425750Y-93888664D01*
X124423155Y-93896651D01*
X124387191Y-93946151D01*
X124329000Y-93965058D01*
X124270809Y-93946151D01*
X124234845Y-93896651D01*
X124230000Y-93866058D01*
X124230000Y-93576130D01*
X124229947Y-93573863D01*
X124228963Y-93552577D01*
X124227133Y-93541354D01*
X124200535Y-93447870D01*
X124192498Y-93431732D01*
X124136005Y-93356922D01*
X124122679Y-93344774D01*
X124042979Y-93295426D01*
X124026158Y-93288910D01*
X123929507Y-93270842D01*
X123920417Y-93270000D01*
X123626636Y-93270000D01*
X123568445Y-93251093D01*
X123532481Y-93201593D01*
X123532481Y-93140407D01*
X123568445Y-93090907D01*
X123586369Y-93080559D01*
X123695516Y-93031964D01*
X123695518Y-93031963D01*
X123700250Y-93029856D01*
X123852552Y-92919202D01*
X123856018Y-92915352D01*
X123856022Y-92915349D01*
X123975048Y-92783157D01*
X123978520Y-92779301D01*
X123983890Y-92770000D01*
X124070056Y-92620756D01*
X124070057Y-92620754D01*
X124072648Y-92616266D01*
X124130822Y-92437224D01*
X124150500Y-92250000D01*
X124349500Y-92250000D01*
X124369178Y-92437224D01*
X124427352Y-92616266D01*
X124429943Y-92620754D01*
X124429944Y-92620756D01*
X124516110Y-92770000D01*
X124521480Y-92779301D01*
X124524952Y-92783157D01*
X124643978Y-92915349D01*
X124643982Y-92915352D01*
X124647448Y-92919202D01*
X124799750Y-93029856D01*
X124900793Y-93074843D01*
X124966992Y-93104317D01*
X124966996Y-93104318D01*
X124971730Y-93106426D01*
X125155872Y-93145567D01*
X125344128Y-93145567D01*
X125528270Y-93106426D01*
X125533004Y-93104318D01*
X125533008Y-93104317D01*
X125599207Y-93074843D01*
X125700250Y-93029856D01*
X125852552Y-92919202D01*
X125856018Y-92915352D01*
X125856022Y-92915349D01*
X125975048Y-92783157D01*
X125978520Y-92779301D01*
X125983890Y-92770000D01*
X126070056Y-92620756D01*
X126070057Y-92620754D01*
X126072648Y-92616266D01*
X126130822Y-92437224D01*
X126150500Y-92250000D01*
X126349500Y-92250000D01*
X126369178Y-92437224D01*
X126427352Y-92616266D01*
X126429943Y-92620754D01*
X126429944Y-92620756D01*
X126516110Y-92770000D01*
X126521480Y-92779301D01*
X126524952Y-92783157D01*
X126643978Y-92915349D01*
X126643982Y-92915352D01*
X126647448Y-92919202D01*
X126799750Y-93029856D01*
X126900793Y-93074843D01*
X126966992Y-93104317D01*
X126966996Y-93104318D01*
X126971730Y-93106426D01*
X127155872Y-93145567D01*
X127344128Y-93145567D01*
X127528270Y-93106426D01*
X127533004Y-93104318D01*
X127533008Y-93104317D01*
X127599207Y-93074843D01*
X127700250Y-93029856D01*
X127852552Y-92919202D01*
X127856018Y-92915352D01*
X127856022Y-92915349D01*
X127975048Y-92783157D01*
X127978406Y-92779428D01*
X134064373Y-92779428D01*
X134066976Y-92792511D01*
X134068549Y-92793965D01*
X134073264Y-92795000D01*
X135009320Y-92795000D01*
X135022005Y-92790878D01*
X135025000Y-92786757D01*
X135025000Y-91848739D01*
X135023728Y-91844826D01*
X135375000Y-91844826D01*
X135375000Y-92779320D01*
X135379122Y-92792005D01*
X135383243Y-92795000D01*
X136323239Y-92795000D01*
X136335924Y-92790878D01*
X136337593Y-92788582D01*
X136337997Y-92784965D01*
X136336074Y-92764035D01*
X136334427Y-92755151D01*
X136279517Y-92560455D01*
X136276276Y-92552011D01*
X136186807Y-92370586D01*
X136182082Y-92362876D01*
X136061048Y-92200791D01*
X136054999Y-92194073D01*
X135980276Y-92125000D01*
X137124500Y-92125000D01*
X137124500Y-93825000D01*
X137141665Y-93911295D01*
X137190547Y-93984453D01*
X137263705Y-94033335D01*
X137350000Y-94050500D01*
X139050000Y-94050500D01*
X139136295Y-94033335D01*
X139209453Y-93984453D01*
X139258335Y-93911295D01*
X139275500Y-93825000D01*
X139275500Y-92125000D01*
X139258335Y-92038705D01*
X139209453Y-91965547D01*
X139136295Y-91916665D01*
X139050000Y-91899500D01*
X137350000Y-91899500D01*
X137263705Y-91916665D01*
X137190547Y-91965547D01*
X137141665Y-92038705D01*
X137124500Y-92125000D01*
X135980276Y-92125000D01*
X135906449Y-92056756D01*
X135899284Y-92051257D01*
X135728196Y-91943308D01*
X135720143Y-91939205D01*
X135532250Y-91864244D01*
X135523592Y-91861679D01*
X135390379Y-91835181D01*
X135377133Y-91836749D01*
X135377099Y-91836780D01*
X135375000Y-91844826D01*
X135023728Y-91844826D01*
X135020878Y-91836054D01*
X135020274Y-91835615D01*
X135013127Y-91835099D01*
X134905540Y-91853587D01*
X134896804Y-91855928D01*
X134707019Y-91925943D01*
X134698856Y-91929836D01*
X134525014Y-92033261D01*
X134517690Y-92038582D01*
X134365608Y-92171956D01*
X134359381Y-92178517D01*
X134234147Y-92337375D01*
X134229222Y-92344958D01*
X134135031Y-92523987D01*
X134131573Y-92532335D01*
X134071586Y-92725528D01*
X134069707Y-92734367D01*
X134064373Y-92779428D01*
X127978406Y-92779428D01*
X127978520Y-92779301D01*
X127983890Y-92770000D01*
X127992880Y-92754428D01*
X131064373Y-92754428D01*
X131066976Y-92767511D01*
X131068549Y-92768965D01*
X131073264Y-92770000D01*
X132009320Y-92770000D01*
X132022005Y-92765878D01*
X132025000Y-92761757D01*
X132025000Y-91823739D01*
X132023728Y-91819826D01*
X132375000Y-91819826D01*
X132375000Y-92754320D01*
X132379122Y-92767005D01*
X132383243Y-92770000D01*
X133323239Y-92770000D01*
X133335924Y-92765878D01*
X133337593Y-92763582D01*
X133337997Y-92759965D01*
X133336074Y-92739035D01*
X133334427Y-92730151D01*
X133279517Y-92535455D01*
X133276276Y-92527011D01*
X133186807Y-92345586D01*
X133182082Y-92337876D01*
X133061048Y-92175791D01*
X133054999Y-92169073D01*
X132906449Y-92031756D01*
X132899284Y-92026257D01*
X132728196Y-91918308D01*
X132720143Y-91914205D01*
X132532250Y-91839244D01*
X132523592Y-91836679D01*
X132390379Y-91810181D01*
X132377133Y-91811749D01*
X132377099Y-91811780D01*
X132375000Y-91819826D01*
X132023728Y-91819826D01*
X132020878Y-91811054D01*
X132020274Y-91810615D01*
X132013127Y-91810099D01*
X131905540Y-91828587D01*
X131896804Y-91830928D01*
X131707019Y-91900943D01*
X131698856Y-91904836D01*
X131525014Y-92008261D01*
X131517690Y-92013582D01*
X131365608Y-92146956D01*
X131359381Y-92153517D01*
X131234147Y-92312375D01*
X131229222Y-92319958D01*
X131135031Y-92498987D01*
X131131573Y-92507335D01*
X131071586Y-92700528D01*
X131069707Y-92709367D01*
X131064373Y-92754428D01*
X127992880Y-92754428D01*
X128070056Y-92620756D01*
X128070057Y-92620754D01*
X128072648Y-92616266D01*
X128130822Y-92437224D01*
X128150500Y-92250000D01*
X128130822Y-92062776D01*
X128127080Y-92051257D01*
X128074250Y-91888664D01*
X128074249Y-91888663D01*
X128072648Y-91883734D01*
X128061396Y-91864244D01*
X127981113Y-91725190D01*
X127981112Y-91725189D01*
X127978520Y-91720699D01*
X127970912Y-91712249D01*
X127856022Y-91584651D01*
X127856018Y-91584648D01*
X127852552Y-91580798D01*
X127700250Y-91470144D01*
X127599207Y-91425157D01*
X127533008Y-91395683D01*
X127533004Y-91395682D01*
X127528270Y-91393574D01*
X127344128Y-91354433D01*
X127155872Y-91354433D01*
X126971730Y-91393574D01*
X126966996Y-91395682D01*
X126966992Y-91395683D01*
X126900793Y-91425157D01*
X126799750Y-91470144D01*
X126647448Y-91580798D01*
X126643982Y-91584648D01*
X126643978Y-91584651D01*
X126529088Y-91712249D01*
X126521480Y-91720699D01*
X126518888Y-91725189D01*
X126518887Y-91725190D01*
X126438605Y-91864244D01*
X126427352Y-91883734D01*
X126425751Y-91888663D01*
X126425750Y-91888664D01*
X126372921Y-92051257D01*
X126369178Y-92062776D01*
X126349500Y-92250000D01*
X126150500Y-92250000D01*
X126130822Y-92062776D01*
X126127080Y-92051257D01*
X126074250Y-91888664D01*
X126074249Y-91888663D01*
X126072648Y-91883734D01*
X126061396Y-91864244D01*
X125981113Y-91725190D01*
X125981112Y-91725189D01*
X125978520Y-91720699D01*
X125970912Y-91712249D01*
X125856022Y-91584651D01*
X125856018Y-91584648D01*
X125852552Y-91580798D01*
X125700250Y-91470144D01*
X125599207Y-91425157D01*
X125533008Y-91395683D01*
X125533004Y-91395682D01*
X125528270Y-91393574D01*
X125344128Y-91354433D01*
X125155872Y-91354433D01*
X124971730Y-91393574D01*
X124966996Y-91395682D01*
X124966992Y-91395683D01*
X124900793Y-91425157D01*
X124799750Y-91470144D01*
X124647448Y-91580798D01*
X124643982Y-91584648D01*
X124643978Y-91584651D01*
X124529088Y-91712249D01*
X124521480Y-91720699D01*
X124518888Y-91725189D01*
X124518887Y-91725190D01*
X124438605Y-91864244D01*
X124427352Y-91883734D01*
X124425751Y-91888663D01*
X124425750Y-91888664D01*
X124372921Y-92051257D01*
X124369178Y-92062776D01*
X124349500Y-92250000D01*
X124150500Y-92250000D01*
X124130822Y-92062776D01*
X124127080Y-92051257D01*
X124074250Y-91888664D01*
X124074249Y-91888663D01*
X124072648Y-91883734D01*
X124061396Y-91864244D01*
X123981113Y-91725190D01*
X123981112Y-91725189D01*
X123978520Y-91720699D01*
X123970912Y-91712249D01*
X123856022Y-91584651D01*
X123856018Y-91584648D01*
X123852552Y-91580798D01*
X123700250Y-91470144D01*
X123599207Y-91425157D01*
X123533008Y-91395683D01*
X123533004Y-91395682D01*
X123528270Y-91393574D01*
X123344128Y-91354433D01*
X123155872Y-91354433D01*
X122971730Y-91393574D01*
X122966996Y-91395682D01*
X122966992Y-91395683D01*
X122900793Y-91425157D01*
X122799750Y-91470144D01*
X122647448Y-91580798D01*
X122643982Y-91584648D01*
X122643978Y-91584651D01*
X122529088Y-91712249D01*
X122521480Y-91720699D01*
X122518888Y-91725189D01*
X122518887Y-91725190D01*
X122438605Y-91864244D01*
X122427352Y-91883734D01*
X122425751Y-91888663D01*
X122425750Y-91888664D01*
X122372921Y-92051257D01*
X122369178Y-92062776D01*
X122349500Y-92250000D01*
X122369178Y-92437224D01*
X122427352Y-92616266D01*
X122429943Y-92620754D01*
X122429944Y-92620756D01*
X122516110Y-92770000D01*
X122521480Y-92779301D01*
X122524952Y-92783157D01*
X122643978Y-92915349D01*
X122643982Y-92915352D01*
X122647448Y-92919202D01*
X122799750Y-93029856D01*
X122804482Y-93031963D01*
X122804484Y-93031964D01*
X122913631Y-93080559D01*
X122959100Y-93121500D01*
X122971822Y-93181348D01*
X122946935Y-93237244D01*
X122893947Y-93267837D01*
X122873364Y-93270000D01*
X122576130Y-93270000D01*
X122573863Y-93270053D01*
X122552577Y-93271037D01*
X122541354Y-93272867D01*
X122447870Y-93299465D01*
X122431732Y-93307502D01*
X122356922Y-93363995D01*
X122344774Y-93377321D01*
X122295426Y-93457021D01*
X122288910Y-93473842D01*
X122270842Y-93570493D01*
X122270000Y-93579583D01*
X120350000Y-93579583D01*
X120350000Y-90449000D01*
X120368907Y-90390809D01*
X120418407Y-90354845D01*
X120449000Y-90350000D01*
X141051000Y-90350000D01*
X141109191Y-90368907D01*
G37*
%TD.AperFunction*%
%TD*%
M02*
